<mxfile host="app.diagrams.net" modified="2023-08-15T04:28:07.641Z" agent="Mozilla/5.0 (Windows NT 10.0; Win64; x64) AppleWebKit/537.36 (KHTML, like Gecko) Chrome/115.0.0.0 Safari/537.36" etag="1WgJ2nCIXwnLDgEyGR1M" version="21.6.8" type="github">
  <diagram name="PÃ¡gina-1" id="k3W1t8mwcczcNuwXUa4P">
    <mxGraphModel dx="880" dy="438" grid="1" gridSize="10" guides="1" tooltips="1" connect="1" arrows="1" fold="1" page="1" pageScale="1" pageWidth="827" pageHeight="1169" math="0" shadow="0">
      <root>
        <mxCell id="0" />
        <mxCell id="1" parent="0" />
        <mxCell id="7esxd-oq5irvHlFANV0P-1" value="" style="shape=image;verticalLabelPosition=bottom;labelBackgroundColor=default;verticalAlign=top;aspect=fixed;imageAspect=0;image=data:image/png,iVBORw0KGgoAAAANSUhEUgAABT8AAAG2CAYAAAC5wPI5AAAAAXNSR0IArs4c6QAAAARnQU1BAACxjwv8YQUAAAAJcEhZcwAADsMAAA7DAcdvqGQAAKxJSURBVHhe7N0JYBTl3cfxX06OcCQcASSiILegErREOTxQi7ZCLdiKB6hFW6mKWnmraL3aohXbilXaqrXihQdoAQU8gkIQiWI4BTkkCEEgAgmEcCQB3vnPzobNspuLKwnfjw47187OzM7MzvzyzDMRS84884AAAAAAAAAAoIaJ9F4BAAAAAAAAoEYh/AQAAAAAAABQIxF+AgAAAAAAAKiRCD8BAAAAAAAA1EiEnwAAAAAAAABqJMJPAAAAAAAAADVS1PDmzR/22gEAAAAAQCXVatNGdU8/XQXr1nl9pPq9e6vuGWcoplmzEv1t3Hpnn639+flu41fHeX/dM89U4ebNqt2+vep07Oi+z6YTVb++in74wR3P3h9n4zndgeMZm0a9Hj0UERPjjh/3ox8prls3dzx/Y+9XUZHinHmo07mzYlu1cj/zQGGhOw2/+r16KSI6Wvtyctxue1/9lBTVbtdOB/bvL+7vFxkXp/rnn6/Yli1Drgd7//68vBLLHI5/WjZ/UfHxKtywwRtycBmLl+m009z5qduli2KaNy8xrn86kXXqKCIyUvXOPbd4vbvDevZ0RopU7EknlViPgcMClz/4Ow4WapxjsR3Uc76XwGHu9+58pv97qux2YOuh3nnn6cCePcXzaO+r6Hbg71fa9mb849ln+McJXE7rDt7GD9kerAnYJmzd+/vbZ+9ztkFbJtsm/OvL2PdT3+lvyvud2/CTH39c0QkJ2rV4ccj5ryz7vk+6/37t2769xOfb8sYkJpaY9/I6kvN3pLnr31nmyFq11PCSSxQREeHOY7Bmv/2tmlx7rfLS0so1/xFLzjzzgNcOAAAAAAAq6eTHHlNcjx7a8Mgjyps1y+3X7p13FFm3rvbv3avo+Hht//hjff/HPypx+HA1GTpUuVOm6Ps//9kd17R+8UXFJiUp64EHFH/ZZW4AturnP3enc6CoSOvvvVd716xx3x9/+eXa8OijJcZLcqZtoU7R1q2KbtxYu7/+WkU5OarTqZMb9Fi/wo0btS8/353HRldd5YYH1kQnJmrX/Pn67s473Xmx4LOlsyz5Tr/1v/+9288+t/HgwSrKznYDSQtlNv3tb8qbM0cJP/uZO/xAQYEUEeFOc9OTT7rD/Oth386dbmizNzNTGx58UHu/+86dbigW1iU5y+eGG8707P3b3npL2f/6l1o+9JAaXnqpCryQ09ZNzv/+p8ZXX+0up82vBVGm0S9+oebOMm3/4APlf/WVmt1xhzY//bRy33vP/YyWznzkTpummKZN1eDii91h295+u8Sw7HHj3GmF+o6DHa/t4CSn365Fi7TRWeetxoxRrbZttW/HDvc73zFzpjvdul27Vng7sPXX7Lbb3PVr37WpzHaw3+n2f5+hPsfYNtfCtrUDvqgqIjbW/b5jTjqpeDkTrrjikG18z6pVbmhmYaiNW/j999q/e/fBbcK2PWddGNsfdqSmqumwYdq3bZvW/OpXxaFusxEj3PG3vPJKub/zk//yFzess+Vwl/03v/Ete1SUO3yj835bL5UR/9Oflthe/U52vt+oevW09tZbvT7lc6Tmz8Le/IwMd388kk5ytncLqC3E379njztv/v04kAW4rZxtyoLRDQ+XXaaT294BAAAAADhMVhLLLtr379rlBjiBdn7+uVYNGOCGW1Y6r+lNN7n9D+zdq7pnnaVap5zidlvIVevUU6X9+93uYFZSq8mQIV7XoSysq9O1q354/nmt/sUvtHnsWHee8ufNc7tzp09X0bZt+v4vf9EaZzq7lixxgzTrb8Fa9jPPqHbHjm6JK2NhkoV1tdu2dUvO+VnQZdNY2b+/L4C79VY3jGg0cKB2LVyolT/9qft5Fow1+uUvvXf51sPqQYOU9Yc/KLppU9W/8EJvSHj++bNpbhk/XgnOemzYr587zIIP+xxrvr3mGjeIsfEj69UrMW03FIuO9rpKF+Uth/87CVTad+xXFbaDBs6yx558svs5tr4tyK3nbBvb33+/ctvBeedpX26uW2rUvme/ymwHpX2OadC3rztvNk13ut99p4Y//rE31Fm/zvihtvG9q1e73T/85z/ufNmrf5sw7rbnDLdm7a9/rb1r17rzYgFs/E9+4o5j826lRwOV9Z1bP9s/LFh3l91ZTgvrbN7dZd+6VY2c78A0uOgiN7RvcsMNbglHG99KYFqIf5KzTyQ468RK4J40apQSnXkMXNe1Wrd2x7FpmC0vvaQf/vtft922h+b33KMWI0e68+ufrj+E9itr/oo/23mPzZ/bz9lu4pKT1fzuu93GXzLTgnVbbvu84M+y5bA/GjRypu9fhuJlv/764n42LXuPzbstg/W3kpz23dn2kzt1anHwGbzuLKy2INrC/MBjUziEnwAAAAAAHCYLsw7s26cdn3ziK13nXeAH2v7hh26JtNodOrjdhdnZxbdhm/p9+rhhhAUtoVggYCXeLGgIpchuDz1wwA0HLcjImTJFK5x2C5vKxUqCRUS4rTb/dnty3qefustVL0Tw4wYQc+YoqkEDNb7mGkXWr69dGRnFwyy4sBDOApJAVjrPbmetqG0TJ7olR22+wrF53bNypVtS0lg4ZaFiaSVMA1lJUisl2OTGG70+B5XnO64K24EFlRG1arnDLVSyEowrr7jCLalXLgHbgQVL9h3aNmTfb8O+fd3+gcq7HbiBbqCAz/Ercubdvi8rnWjrzoLKwNKNVmrzsLbxAHYbf0FWluK6d3e7LQS10pSFmza53aas79NCa3f47NnucAvPA5d941/+oi2vv+4uj92+bsF8IwsHH37Y3S9Ouu8+twSqlWBtfscdbn+7fd6+u5YPPOBOx7ZH2yasxLSFk1ZK1wLLpr/6lRtOnvKPf7ihsG1PJz/xhBs+23TtMy2g9Ctt/uzzrDRnTIsW7jK3euopd9uxzzj5ySfdqgIaXHCB+/m2zDYd+04tGA/8LJt//3dny2WBrLvszji2bi18tWnYd9zq7393P8uqJzhl7Nji+W5+113utmR/HLAm1Loztp/bNlQ3OdntLg3hJwAAAAAAh8nCqL3ffqv89HQ3rPCXJgtmdRDabcKuffvc8KVez56+Ogk7dtSuBQt8w0IoWL9ee5Yvd2/LDVWS0QK+DQ895AaEFiZ0mD7dLWlVGpuOlTS026ktZNjpzP/2jz7yBUENG2rn3LnucvkDomBWes6CNrckm91a7Hy2ny2rTd8fGFm413biRLX8wx/c296tRKKxIMRCkqQ//ckt2RWOhTURUVHuLbEm1nlf588+c5vTXnvN7WehaoGzHmKaNHGXy0ql2TwF10kZjt2ObbdK2/cZHLKW5zuuCtuBBZF2K7AFarZebJ2Hmw+/cNuBlaC1ed0+bZobyPoD2mDl2g5q1w77OX5WktNK+Mb376+OH37oBnsWwvm5tzlXcBs3DS+/vHhbsYDN5Wwre775xi3ZaevdSjTaPmS3W/uV9X3aOraSprZtRjvbXISzjIHLbrfk53/xhVui0ebbbrffOW+eG3AauzV/6+uva92dd7qfbd/7OmdfsHGsdKU7zq5d7jr57vbb3f3GrYfWY9v6xiee0NZXX3WrNrDt17Yr+z4sGF53993emM68ljJ/FmzudrYp+wyrosCqRvCXyLUqBWz+LLS373ez851YSG0lhvMXLSrxWVZFhFVnYX80sSoYLEy1ZbXPtIDaqqPYPmOGu13ZfNo07T0237bd27Ss37rf/c5dVgtYw607C/Pt9v3oRo3c7tIQfgIAAAAAcBjch4eccorqdOni1s9npZYsSAnFAiArmee2WymspUvd91o4YwHA7m++cYeFs+W119ySdeFu9bRSdt/ddpu+ufRSbU9NdW+P9t8qG4qVWrNbgi042b9zpxt2Ggs7Ldix5andqZMbQFloFcxKc1kAYaGUhTTW7WelGe2WbrdEqsPCEgsWLQixekQtMKoIW08WWNnDaowFP8t69nSbb6+91u1ndUTaOPZgHPterLSbBWwHvDoky+OHF190Ay836PJKJpbnO65K24F9j3ZL+6qf/cx3S/qvf31ICdxAYbeD5GQ3NLM6Ju1BUnWczwv1meXZDiyADvc5gex27pXOevhuxAj3gUlW32igim7jxsJb/7by/WOPuf2sBLJtixa4Wd2aVseqBW1+5f0+Ldw1VoLXSpPa+vJzbxt3GguNrcSi+zm2HTvrxOVsl/b5xkJXf7uxoD+YGyTXqeN1+f4AYPXZNnW+XyuRaXWPhlPa/Nk0i7ZscfvZ+rXvywLQQPbZZe1HDS++2P0jRoNLLnGDUmP7k4W6VqLz1Gef9d2aX7euO/2E/v3d8NpdbmfbCORfr2HXnXH2z9KW2a/M8NO+aLtf3xJ5e7XuQLYwCVde6c5EcPHfcCyVtYpxbcGb/+537mviLbe4O1UogePbSvGvwEC2wtzp2A7tHJiDWVpvO4x9jqX6AAAAAAAcCXZrtZWKy/73v7Xl5ZeVM3WqG6QEh0SNr73WLQllD93xs5JXFsBYvX9WUsoCpNJYKS2rC8/qPXSDvgB2Xdx+2jQ3pLRgcY8z7f2FhW7QENaBA24prs3PPKO969a51/c233bdvO2dd9zl+eGFF9x6G4NvL7Vrcws5LFSxOhhtHViJLssGrLEA1Uo0+m85t7DLSqjZbbdWj6M/X7DhG8eMcR/uY3UZhmOZhIWGtg7KYqGaG+rUqqW8Tz7x+vpuCbdw0Z8rxDRu7IZM/uDHzwI4K2FqJUhNeb7jqrIdWD2K7SZPdj/Xwsg9K1b4QqLSMpsQ24FtR5bHbH3lFXd57LuxdRd3zjnem3zKux0UWAge4nMCneqsOyvtaSwgd6shCJhvy3YqvI2XwkI3q0bA1rttn7nvv+8NKd/3aUF8cUlE5zuxUqD+EsM235ZTNXKW0dbZnm+/dUNbC9Yrwkoz+0tQWwBrD6rys1v/LcTd9Pe/uyUmA8PTYKXNnz34qdZpp7n9LEi29Vnw/ffueKG48xQYQnpsfixAtlKgdswwTW+5Rft27XKrXsidMcOdvu1v9v1lP/ecW/foFmd/C/fQpXDrzn/8sDpiyxI2/LQ0u42zYbd1DnZWUamFn/Z62ltvuU9Ucp8U56wUCxvt3nureNWCxfKwjcUqKbYnmlmYaa+2c9rTzDp9+qn7VDJLrP0Cx7fxAitMNjbc/jpiab+FpMFF021HbOSsTKsroMmvfuU+IQwAAAAAgMNl18VWv6SVlrKnMVuTM3GiG/L4H7rjv+W26Y03Kse5xg58QrKFFVYy0cYvT6hn7OnX/nr7Atmtp1aqrsW996q9Mx8t7rvPfRCM1VdYHrn/+58bKNj1v5Wu2vHRR8XLZPNYt1s3RTds6D6s6JSnnlLbSZPcUG2z024swLDr744ff6yOznvtFttNY8e6wwLZ7e4WriR4D1opjQV7dq1v689CEwsl/SFJ4G3vliVYHYN+O5x5sKd7W+lQ+2787L15s2e703TX0ahRbqnLwNDL2HdhpVQtWLNwqazvuCptB3aLdMHatW6IaMtoVQnsdKZZ3un6t4NG11zjBrJb33zTXR773ixItdvzzeFuB/7PsXpC/SxotdKeHVNT1eGDD9x6LLcH1OdpoXZltnH/uremnfO5ddq184Y428SsWb7StsuWFZdGLs93bqz6ARvXSokaC0prO9O2eW8/daqv3/PPu9+TlUK25bISxVbq8ZA6UMNx1m2z3/5W7SdPdsNP27b9LCC24ZbTWTZnVVVYE064+ds6YYI7T1YdgU3HbjkP3icCWahuOVtweG3BfcPLLlPHmTPdINTm16oWsHDZPs/+6GGlQG3aViLZ6jVt77Rb1mffeyih1p2VHrXsz0LhskpJm4glZ555SJlV90lO99xzMETcv9+th8At8mrJrtOd52ww2c8+q/grrvAdsJwddcurryr7n//0vacUlpJbBad2P384tnI2Pf20u2EHj2/1W2z661+1wzm4GQs/7XH49lQuS7Gt/oFttvN57ABpyxN70klut9ULsPHxx32VowIAAAAAAAAVZKH3KU8/7Qaw/tvpcWwkjR6tqLp19d2dd3p9wgtZ8tOKlLoJ9IEDbsptxVWtXgR7df9iEhHhBqSWbFvR9PX/939uhazlCT6DWTFaq8ch86ab3L9aWAWrFq7Wat/efdKTvyh6oJiWLRU/YIAbepaH/XXKirL72bKVVtcFAAAAAAAAUBorKWolXe3u5XBP38eR1/i669wSrNusNG45hAw/rVJjK1puxa6t3gl/CUt7dSslLihwiy1bCGn1A7T4/e/dxv+ELSvaesozz6jTrFnqsmCBOqenq92777qPyA/HSmNa+GklOu1JUlZ3gBUxtjo6gtkwC2gb9uvn9QnPfWqX1YERUAGqFQG28NYSegAAAAAAAKAyrCqFrD/8wVdYEMeEPU1+3V13ha0nNFjI8NMqC7XKdd16C3r1cu/j97Pb0Le+/LJbD8NO50Osno6YxES3hKY9acxKVNqDhezR+249AxG+Jy/Vat3arbMzsA6OUKzkp20wFrxa5cLhHk5kTw6zugLqpaR4fUKzANVfinX3kiVuJbtWmbHd0h/qwUgAAAAAAABAeVm1ilaHJY4N9wFaTlNeIcNPezKTvz7M2JNPdiuStQph7XH1Vu/n5mef1aannnKfJBWsfp8+boW09vj7HTNnatWAAW5lu/t37XIrOrVH1Md4dW+GYkWG7alPVtmsoqPdANVKmfoVbtqk/C+/dB95X6tNG8X373/Ik8383AqH7VH/9etr/9697pPU3KecOe+Nad68xEOVAAAAAAAAANQsIcNPu9XdHl7kr3/TbjO30pPxP/2pTn78cbdS0cBH+weyUp7uQ5EcVnLUbjffkZqqXUuWqDA7Wwf27lVkmLDSz0qd2uf6S42WGN9C1U8+UaFXgrP+eee5pVNDcZ/+1KmTO17RDz8of8ECt1SpPWLfSqxa+FneekMBAAAAAAAAVC8hw09jj87/dvBgrbvnHreuT//j/q00Zfzll/uerh7ilvNdCxeqaPNmNzCt37u3Wv/nP+64Bd99p/XOtNYOH669a9d6Y4dmoakFn8Zuf7c6RgMVfv+9tn/wga80aXy8W/en+54gVq+nlfC0IHXPt9+6T5C3x+7b+236tdu25dZ3AAAAAAAAlMqqhGzz8sslqoY8HCf94Q9q9be/eV3hWbZmn5v4m994fVBRYcNPP7t1fd2dd2r1L3+pH158UQXr1rn9Y085JWT4aUFp9r//rV0LFri3mvvr7bSNo9VTT6nJkCHemKFZuBrdpInvVvZ9+7QvL08H9uzxhh6U+9577kOSLNi02+ytTlF/YGqsRKfV92m36VtJ1AYXXKAOH3ygNi+9VFyPaHSjRqqbnOy2AwAAAAAAoOayZ9R0mj1bXRYudJtOc+a4IWR5HohtWVXt005zX+Mvu8x97ylPPeUNrTjLrdxn1JTBqoO0z7Vn7VRERebRlr/BxReHfOj4sWYhr823/zvq/Nln7p3oFgKf9vrrlXqq/iHhp93O3vbNN90P6DB9uhsaGqtIdPPTTyt32jTt373bLWkZ7az4wBKX1p7w85+74aLVG/rd7bdr62uvubfPWx2eFjY2vOSSUr9cG1anSxdFREdr344d2rNsmTekpL3ffaec//1PBd9/797WbtMOZNOo5WwcgYFoMAtY7Unwdns8AAAAAAAAaiYrlNd48GD3WTCrfv5zrfjxj5X/xRdK+OlPy3w4d7Ads2dr6+uva+tbb3l9qp6KzKPlYi3+7//U9Fe/8vocH1atpYWbVn3msp49tfSss9xXKwBpIXCtU05R87vuUqOrrvLeUT6HhJ+Fmze7dXNa3ZoWKNY777ziBNxe7WFFbuC5f79723kgK2XZ8NJL3dKd1tRu00Ybx4zRxr/8RXszM33j1K+viLp13fZgFpo2uf5693Z0e6CR1c+5Mz3dG3oouzXfmv1BJUMt1LRb3qMTEtzb5nPeead4pVljG3n+/PnuuPZAJyshCgAAAAAAgJrJrfYwIkK577/vPpnd8q8f/vMfFW7d6mZIxnKvxF//Wm3++1+3xKSVOAzFLQHauLFimjRxu5vccIOa3XGHmt1+u1o/91zIEpRWcvOk++5zp91i5Ei3ushAVhix5YMPFg8vb0lP//tOe+UV99X/jJ7geTS2PLZc9hm2nG6JzwsuUMKVVyqydm3FJCa6n20ho7FM8OQnnnCrtPSPb+w9tixWutRu3bfpNb7mGt/6Gz5cbcaPd99n7/crz7q1qi3t7m170Lm/+s1gFoJaCd6KBKBRw5s3f9hrd9nEo50Pq9uliyLr1VPtjh3dFDzhiivcLzPurLPckpb7nI3DSl7GNG3q24D273cTc6tPs07nzu6T3Wu3a6cGF13krhRb6fa+vd9+q10ZGe50rKiwPXjIbp+3sLTx1Ve7n2fjFW7cqK2vvuoGoPaFW/FWG3//zp3KmzPHrUPUWFBrYWlsy5buRmy3yFup0Lju3d36Pvdt2+bO5+6lS93xzb6cHPc2eZtPC2wtxN311VduiVYAAAAAAADULJYdxZ19tnunsVtVY36++3Bsu2PZcqNabdro1GeecfOnoq1b3Zyp4eWXu+NbAbq4c85xg0V7oLdpeuONbp6UN2uWEm+9VfH9+rklKK0Q3u5Fi4oLARqbtoWEln/ZQ74tj4pt1Ur78/K07c033RKPSX/8o5tVHThwQPWcz7J++V995eZuNk+Wp9lnBXLf96c/+d5XWOje3Ww5XMHatW6WFjiPFhg2++1v3ZDTCjU2OP98tzBgUW6u6jvz5VZBGRXlFoa09eMGnPff74aNkQHj20PIG1xyiRpdfbXq9ejhuzO8USM16NvXfUaQ5YlWoLGus4wWAlseZ8FnaevWzwpF2jTz09PdHLH1Sy+p+R13uLfC23K5VWQ6bBlsXuw73B3mjvFAIev8zJkyRdsmTiy+pdxCRKtX0xJgS2CLtm3TtkmT3AUOZgl63ty5OrBvn7uiLT13n7jurAy7dd6KqroPHPLY9G0lWRptT4Z3H060cqV++Ne/tP3DD72xwrO0PtfZSC2x97PSnP6nuFsQak+vD+Y+mMnZyC1pt2WzDQ8AAAAAAAA1z9Y33nCraLQArt2777qlE63qRr86HTq4QeHmZ57RmhtvdKtyLMrOVr1zz/XGKN2+3FytHzlSqwcNcp+fE8hu5bacKvu559y7kVc63QUB4WiTm25yQ8d1d9/tvn/zuHFuFmcP+C6NzZsVKrR5Xv2LX7ivlrNZUBvMxi3ctEmrr77anQfL3Gq1aqXCrCxt/OtftW/7djePW/vrX7sFDxtfe62b39l0bXzLAet07KiGffu607Owdcsrr7jzu/a3v3WnbRnbut/9zu23dcIEt3ClfW6l1q2zHBGlVGXplgB1Prc8dYAeUvLT2AJYKc7t06e7DxxSUZFbwtKSY7vv3mbWhtl4FoZa8Lh74UI3rd2zfLl2zp2roo0b3eFFOTluQLn9/fe16e9/d6dr/S0Jd0uBLlnilu60p7DbLe5bXnpJm5yVbnUw+AWOb59hpTStPlC/PatXuxuZPYzJ0unC9evdJ8pbwLnD+TKtX7CiLVvcZbNlsnm2z7MwFAAAAAAAADWLZUs7PvrIvRvZHs5tBfXiL73Urb7Rcqu82bO18/PP3TuSGw0a5N5R7H9mjZXODCz5aUFhYGnM+CuucEsxWtWPodjdznZ3tQWwhRs2uPNipSej4uK0d9Uq97ZzuxvZCh1aCUcrGWlhaZFVTblxY9iSnza+lSa1eY5t3tzN1SxT2zlvnluKMvB9Nu/20O+4bt0U5cyLLZM9sNzyM/s8+1zL1qzQYv3zznODV8vO7H02zAou2jxZIUNT11l/2531aYGp3WFtt6FbdmfPCzJWytZdX0uXukFoaevWL7Dkp7H595f2DOXA3r1u6diySn+W+rR3K+H5wwsvaO3w4cr81a/c101PPVWiJKWtQFuwzc8+6wabxoqdWiK87p573Pd9d9tt7gq1kp/GpmsLbmGofSlu87e/KXvcOPeW9mCB41s46p9OIPtybN7sc7a89ppvnsaOdZ8+H4rNo9UFatPM/te/QpYOBQAAAAAAQM1hherW/9//6ZuLLnIzJCthafVVWlB36r/+5d4qblU5HlGRpcRv0dFuNY52a7iFf9ZYMGglKQPvcg7Fbte3wNXGswC1zSuvqM3LL7u32Qez8baMH+8rMTlihNpPmeI+6T4ku/3dYXdp++fJAlIrdGiBaEVVat3u2+dWARCOBdBWOHPb2297fcIrNfwEAAAAAAAAqjt7aE/bt94qfpiPsfCw8Icf3OoT6/Xq5YZ92f/8p7674w5lPfCA727oI8BKVFrJUHvuTDArnGclJq2Ep91iHthYYb3SWJ2a9hBwu11++fnnu4UArW5Tu2U9kAWrdou5Bb823W/69nWrALBSr/bQomBWotLCR6uvM3B+vr3mGm2rxBPuK7Nuc6dP13Lnff6Hl9t7bF2ZigSfhvATAAAAAAAANdre1avdBwNZqUf/k9QbDx6smBYt3GHGnlcTe8opbljY/O673dKOR4Ldmm23b1vpTPtse7WQ0tidyBYy2i3hze+80+1nDxtq++ab7vyVppEznZYPPVSy3ksrLVlU5HX42BPf7YFHJ917r1sKs9j+/W7warfXW+Bp4awtuz3Lxx7YZE9rt1Kxxl7bvvGGewt8ZZRn3VpIbOxzbbxQKhp8GsJPAAAAAAAA1Gibnn7afbi31UXZ4YMP1GXhQreEpNUBmv3889o+Y4Zbd2Tjq69W588+U0L//u6T0C20CywtWhlWWnK785n1zz3X/ewW997rho5+VsLTnlvT+PrrdfqXX+rkv/5V+/fudevwLI3Nt4WUzX/3O/d9ze64Q3u+/VZbA+rRNFZPp1UjaXWdtnFeO82a5ZbG3P7xx269nf6HhdvT4jt++KEaXHihGzBatZMt7rnHnXbzu+5yb68va55CKe+6taowrYrK+n36uOPZd2Sv8T/9qRt62nxa9ZUVCT5NxJIzzwx/Az0AAAAAAABQg9jt4lb3pD2Ex38rtV+d0093H+5jt4UfaVYXZ+3TTnMf/B2qPk8rFWolMy3AtIcwlZc73fbt3YcPlfW+0pbdhhn/M31MWfNcEUdz3ZaG8BMAAAAAAABAjcRt7wAAAAAAAABqpHKFn1Y0tDINAAAAAAAAABwvlPwEAAAAAAAAUCNFhiqxGdxUVqhpldYAAAAAAAAAwJFSpUp+EoQCAAAAAAAAOFLKVfLzeDT7QzT+YQAAAAAAAABQlmpV52dgOAoAAAAAAAAApYnUgQOq8k0Q6xNYGhQAAAAAAAAAglXZ2979jauUQNTa/EEoAAAAAAAAAPhV+fAzsK5Pf+MKCkFN4LgAAAAAAAAATmyR/lKTpTX7KtmEmlZ5G3+IaU1wt79xBQWg/q6SfQEAAAAAAACcaCK+7Nr1uOaEEd5rSBEHh/rb7DWwPfA11PgmsB0AAAAAAADAiSEyVInNY9kUhWisv1sC9MABtzkQ+OoNs8T2kFKeznC/wEQ3cFwAAAAAAAAAJ4aIz7p0Oa65YGmlMv3DIiIi3PbAxkp52muktTsC+/sdbCspXH8AAAAAAAAANUfE7NNPr5KFIv0B5SHBp9Ntgae/3V793cZ9JQAFAAAAAAAATngRqZ07V7mSnxZquq8BjYkMCj6jvFfrLu7vNK6AaZSmrOEAAAAAAAAAqqeIDzp1qhIlP93g0gssjdvta3VfA4PP4nbvtUQo6jWEnwAAAAAAAMCJLSI/P79aPgto+rRpvvAzMtJt/O1uSVB/8Om9lkdFxgUAAAAAAABQdYTL9qpt+PnpJ58oKirqkPDT+Lv9yhtsEoACAAAAAAAANYNlfdU2/PwiPd0NOUsEoPZqCxXQmIqEmhUZFwAAAAAAAEDV5OaD1TX8XLRokaKjo93wMzAAdUPQEMFnRULNiowLAAAAAAAAoGoIzvWqbfi54ptv3NAzXABqAoPPigaaBKAAAAAAAABA9VZtw8/MNWuKg097tcDT/2oIQAEAAAAAAIATU3EmWF3Dz3Xr1inaCz6DS3/6g05/Y4Jfy6Mi4wIAAAAAAAA4voLzvGobfq5ft04xMTFu4w8/beH8r4EhqAlc8MD28qjo+AAAAAAAAACOn+JMsLqGn99v2FBc6jM6JkZRkUFPfncW0P9qggPMigSaFRkXAAAAAAAAQNVQrcPP4lKf1kQerPMzsNSntZtQASYBKAAAAAAAAFBzVfuSnzGxsW7dn/46P/2lP/3hZ2ATSrj+oVRkXAAAAAAAAADHV7UNPzd+/71b4jPGGrvtPSD4DC79aQLbg5U31CzveAAAAAAAAACOP9894dXQgQMHM1trD+w2wd0mVD8Trn+w8o4HAAAAAAAA4Pirvre9f/+9e7t7rN32bnV+eiU/g297t3bjL7UZrvRmeUt1lnc8AAAAAAAAAMdXtS356WelMQNLZAaXziyr2y9c/2DlHQ8AAAAAAADA8VWtb3sPDCLDtZuyuv3C9QcAAAAAAABQ/dSIkp9+4dpNWd1+4foHKs84AAAAAAAAAI6vGvPAI79w7aas7oo4nPcCAAAAAAAAOPoOK/zcv3+/2xwvFkD6Q8jAMDJce3lV5j0AAAAAAAAAqpZKh5+7du3SK6+84jbWfqyFCjjDhZ7h2k1wNwAAAAAAAICaoVLh5/bt293QMzMz022s3foda4GxpT/ELE/oGRx4BnebUP2ClWccAAAAAAAAAMdHhcPPzZs366WXXtLGjRu9PnLbrZ8NO1b8wWNgAFlaPwAAAAAAAAAnlgqFn999951efvll5eTkeH0Osn42zMY51soKQP1KC0XLGh8AAAAAAABA9VLu8HP58uWaMGGC8vPzvT6HsmE2jo17tPmDyeDXQKGGhWuvrCMxDQAAAAAAAABHXrnCz/nz52vSpEnas2eP1yc8G8fGtfccbcHhZvBroPKElJV9HwAAAAAAAICqp9Twc//+/Zo1a5amTZumoqIir2/ZbFx7j73XpnE0BAedZb0GCuwXajgAAAAAAACA6i8iPz8/ZPq3b98+ffDBB/ryyy8rHRBGRETonHPO0Y9//GNFRUV5fY8Me8p8bGysYqKjFe019hnWREZGuo19vr0a/6v1C3w1ge2mrO5wwo23c9EkvfTZJq/r8DTvOVSDzqzndQEAAAAAAAAIJ2T4uXfvXk2ZMkVff/211+fwnH766erfv79q1arl9Tl8/vAzOipKMTExbujpD0DLE36a8rT7heoXLNw4mybfqSHjjkw9qJ2Hj9dTA5p7XQAAAAAAAADCOeS29127dumNN944YsGnsWnZNG3aR4qVRvWXSA18DdUv1GtpyjNORdRrdooaee0AAAAAAAAAjo0S4ef27dv1yiuvuKUqjzSbpk3bPuNIChVqlje8PNIhZzj1Uu7SGy//Uf1Pi/X6AAAAAAAAADjaStz2bvV8BtbNOXHiRC1dutTrqpwuXbpo0KBBXtehn1FZa9ascW93D6zz0xq7vd1/67vdhh7utvfgVxOu3S9Uv0CBwzfNm6KFjS5Sv/YB9XPu26nV7/1ND4z7TNu8XhXFbe8AAAAAAABA+ZQo+XkkQsmyHOnPCCy7WZnSn+FU+v3bV2vKn4dq2EPP6m+3D9bwf3+hnH3esKh6ajvgQbcU6KD2lAIFAAAAAAAAjqZD6vwsj+bNm+vMM88s0Vi/Y+rAwfo9TVntZb2awPbK2DTvOQ0f+ls9M3uTCtw+BVr9zh90/Y2PasrKnW4fV7Mf6ZanJumdt5zmHzeordcbAAAAAAAAwJFTqfCzU6dOuvLKK0s01u94sMAyXIB5uGFmuVlpz9E3aNhDk7R6t9cvQMHmz/SMVwp0U3Ep0FjVa1hP9U4+S72OdCnQjGd16Y9/XLL52dUacvsf9NzkhQfnIYg9ld7G/envpoQdR1qoZ9xpPuu0lWL9JA2z8X49Seu8XgAAAAAAAMCxVKnwsyoIFXqGCz4D20Mpa7hfqPGstOdvb7hNzxaX9gzHVwp0WHAp0DqddM1TEzRueM8j/0T4k3+k/gP6u81F7WtJmxdq4rjfa8jA32ti4DwEKVj6vB6fvsnrqpx182b4Qs+1r2vG4VUbCwAAAAAAAFRKtQ0/AwWHkuGCT3978GugcO89hFfa8+aH3wlZ2jOc0KVAvbpA/zFYR7TygDMH6rbhv3Wbe58Yr5ffmqo3HxuotvsW6rnfPaAp33vjHaJAy/79uKZs9jorat9yzXh7ndQkQY20UzM+W+4NAAAAAAAAAI6dah1+WjgZHFCGCyxLDTIrqPylPcMJUwq0YaMjX/ozSELyLXriwX6qV7Bcz437RDle/0D1miQo1oY/MUWVKv+5aKambJfOGvon3ZAs7XxvsuZUICAGAAAAAAAAjoRqfdt7oIoEoYcjZ/q9FS7tGY5bCnTczMoFjIeh3jmDdUMn5/O/nKy0EKU7W/3iXt3SJda9/f2Z1FDxaGkKNOfjGc6/Z+mic9qq18U/cnp9ojlfVi4mBgAAAAAAACqr2t/2Hi70DOwXrr0y9hbsrWRpz3Jo1l9PffCBPrTmsf5ez6Ohuc46x26wX65lK0ItTXP1/7+b1Tm2QF889TfNrEj+uf0zzUh1pnlOP/VKkOqd108XxUozp88MWcoUAAAAAAAAOFpqzAOP/MobbvrHC34NFtzf+VSvrXqLrZfgvm7K2ea+HqJZf937606KLfhCf/v3Zwr/eKSSctJn6AvF6qLLeqqe9ahzjnr1jpUyJil1vTsKAAAAAAAAcEyUGn4OGjRIDz/88CHN+eef741xkPULNa5N41iwkDJUgBnYL1zAGay849V0zS/zbn//5HE9M7s88ec6pU5aKMX2VK/kWK9frHpd3M/5d51mzHOf/w4AAAAAAAAcE9X+tncTLqw85iFmp+EaP2OG77b1gObl4Z28EcqweYru/PGPdak1903xeh5HUc3V/3c3qLMKNHPMM5pTVv659jNNWSvFXtpPvep4/cyZF6l/Q2nd2zO0zP+EewAAAAAAAOAoq3G3vZtQwwK7w73vRFKw01cDZ/OEMp4vf9JA9/Z3e2jR3/79Ram3vy/7YKL78KZG7oOcnj3Y/Hum1jVwBmz/QHOWu6MCAAAAAAAAR12NKPkZqCLBZmkB6XERFatGJzVXc2sS/LeNHw05WrbUYspO6tyh7M9pPuBe3dJJ2vnhX/Tcl2EeW7RvoWa+54tGN305RVMml2y+cOv73Kkp0z47eg+MAgAAAAAAAALUmPDTgstw4WVg/1DjHPfQ069JPz343/F62Zr/6+f1PPJ2ZryulzKcluR+6t3M169UUc016M4b1Eo7NeOpf2uO1ztQwbwZmlEgNb/6L3rnrUkhmqd0zanOeKkzNGe79yYAAAAAAADgKKrWt707/7ivpUWXVSbYrCJ2rpygBx6aom2xnXTb7f3ke+Z7OZw6WA8OaSVtydGhz4fP0cz3PlGBWqn/xWepXsN6IZpO6ne51X36hWakhyk9CgAAAAAAABxBNe6290BHK/gsa7puIFuZz95XoJ3bd3pNntfzMCyadLDezaf+oOFXX6Gf3/6SlqmtBj32J/U/yRuvnFpd/QfdcKrXESgnXTOtJOmp/fSjk329Qmnep5/Ocl4XTpopnvsOAAAAAACAo61Gh5/BKhJIHq3gtFRbZuiBXwzUz615/BOv52FY/8XBejenL9Sm2M666MY/6uVJz+qWLvW8kSogqpWuuXOggh+RtO7jSVrovHa+vKda+XqFltBDFyU7r2tnaM5aXy8AAAAAAADgaInIz88/Dinf4VvxzTeKiYlRTGysoqOjFR0V5b5GOa+RkZElmoiICPfVWLs1odoDX02ofpum3KWh45aX6Fes03CN/3t/Nfc6/eNsmnynhjjvCanTb/XyU957Nk/RnUOe1TJ3QGidh4/XUwP8nwAAAAAAAAAgnOpd52fQq78JJVx/AAAAAAAAADVTjbjt/WgHmwSnAAAAAAAAQPVzQtX5WR4EnQAAAAAAAEDNUG3r/Pxm+XLFWn2fMTGH1PkZXO+n8df96W9M4Ku/3QQPN/72nYve0fi5m9z2QzTtqRuuOkv+RwkdfM8kvfRZOd6zfaEmvvaZwozpat5zqAadWYmHFQEAAAAAAAAnmBMy/DTh2k1gf7/AdhPcHUp5xgEAAAAAAABwdNT42965jR0AAAAAAAA4MVXb8PNIh5qEpAAAAAAAAEDNUq1LfoYLLP39CTQBAAAAAACAE1e1v+09MOAM1x6IQBQAAAAAAAA4MdSIOj8JNAEAAAAAAAAEq/EPPAIAAAAAAABwYoo4UE2LTX41f75iY2MVHROj6OhoxThNVFSU2x4ZGVmiiYiIKH419hquPdSrCWw3wd2hlGccAAAAAAAAAEcHJT8BAAAAAAAA1EiEnwAAAAAAAABqJMJPAAAAAAAAADUS4ScAAAAAAACAGonwEwAAAAAAAECNRPgJAAAAAAAAoEYi/AQAAAAAAABQIxF+AgAAAAAAAKiRIg44vPZq5av58xUbG6vomBhFR0crxmmioqLc9sjIyBJNRESE+2qs3d8EdvvbQ72awHYT3B1K4Dg78vK8NqD6a1C/vtcGAAAAAABQdVHyEwAAAAAAAECNRPgJAAAAAAAAoEYi/AQAAAAAAABQIxF+AgAAAAAAAKiRCD8BAAAAAAAA1EiEn5VUTR+SDwAAAAAAAJwwCD8BAAAAAAAA1EiEnwAAAAAAAABqpIgDlbh/e//u3dq/a5fXVXER0dGKatDAaYnw+lTcV/PnKzY2VtExMYp2phdj04yKctsjIyNLNBHO59irsXZ/E9jtbw/1agLb/UL1CxQ4fEdentcGVH8N6tf32gAAAAAAAKquSoWfW19/XRufeMLrqrj6vXrp5DFjFFmnjten4gg/wylU9tIlyqrTRl1Pi1eM17eqyF86RRO2JmvY+Ulen8o7ktOqlOwMTXovQzmNe2jwgK6K83pXDUd3OyD8BAAAAAAA1UGlbnuPio9XhBcm4mjL1oxRgzRokL8ZrKHDR2rstEzle2OUsHKCRv0jQzHNq17wafLXzdOMlTle1+Gp9LQWvRC0Ph/RPz9x1uc+b3h55KZp9IgxmqfWSm6V4PWsOgqXjq/S2wEAAAAAAMCxUKkEM/6yy9T6P/9RrVNP9frgaGt9zRiN/+94p3lBY+5M0eZXRmncnOD4M1cZi+M0fPQwda1axRCroN4a4a3PcfdfobgZozTsoRnKLmcAWrg8QxktB2vkTX2V3C2pipX6zNWSb5I04km2AwAAAAAAcGIrX/i5f792pKZq09//rv35+XY/t+p266bTXntNTYYMoRToMRBTO05x9X1NYvuBGnxRodKXr/EN3JOtJfMzlat4JQ8aqOTGUu7aDGWszfUNN3lZWvLJJL3wTqqWrDu0zGj2ylRNen2G0lZmK3/TkuL3Fga0++Qqc36GMgN77cvWyjkzNKEc0y7w+gXKXpmmGa9P0Iw5K8sMH0ud1r58ZS09OLx0cYr31mdcy2QNGf2ILtswXuM/Lzn/+euWKPWdkvNm63b2ohXOet/grPcMLdlU6BvgCDW+sfcs2ZTvrM+VIYebUteDfx2HWDb/tLMXOcM/WCmbm4RTE1UvcBplfP8AAAAAAAA1UZmpZdEPPyjrgQe0fuRIbRk/XqsGDlT+V19JBw4oMi5Oze+6yy0FGte9u2ISE7134ajal6WVy6WubU/2de/I0ITHU7Xe1+Va/9Fojf7I67Nphkbd8rDeWZEj5S7Vy6OGadQ0f4CWryXPD9Pwv85R9p4srZg2RsPvOvjenIwJB6fjWq/Ux0cr9TuvM3+JXhg+Qs/Pz1J+uGk/OkNZzrSXvu1Md/IGb5hjX7Zm/HGwRvwnQ/nxCcqe9ZRGDH9BS/Z4w0sox7QeGub0W6mcPZlKe2qEhj2/JHTVAKFEtddFP0lQ+vylbnhosqeN0rDHp2plbr4y/fPmTHDndxlameW05K/XysUZytzii2HDjW/s+3jy0fs14pnpyszNVcbrD2nE42nyZci+ZRvx3Dxn2Q59r7LTNMZZx0/NylR+iGVzp/3QCI38R7qy83Y6/Ut+R/mLXtDwW0dr6ndxSpL3HX1QVjgMAAAAAABQ/YUPP73SnqsHD1butGk64HSbwk2btPbmm/X96NElSoFaAJr05z+7T3LHkZf59sMafttwXzNspFJPG6URfeK9oaXL/HSiVvYarod+M0zDbhqh0Xf2Ve6cecq0gSsn6ckPTtatf3lIt97kDL9zjB4eUN46LAuV/uJopZ37iMbc6Zv2mEf6K/eVKVpipQ7XzdA/bdrPjNEIZ9q33v+U7jzX907X1izltBym0aNHaODl/TTk/lEaFDNDMxccLElZrIxpZb03Wi/UcqZ1/63OfNyqUWOGq8MHE5RWgYwvtq6zPrNz5NYiumGKRr9YS8NGj3LXy633j9HwtjM0YVa2ks4fpoHntZRa9NFAZ1j/LnGljl/s9CEa86cRvvm7d5ASFmRohQW9+Rma8UGCBt8z0hlm7x2loS0yNGepxZvOOn5znJaeMVJjipdtpLrPdZY3PWA9nTFc4154SCMGJavkVlGo7B+kvr8brVE39FO/nzvf/29TtHJqmrK8MQAAAAAAAGqqkE97t9Kedov79hkzikPPUKKbNFHSH/+oeikpbghqpUF3LVyoDY88or1r13pjHaq6Pu39s7lzva7yCXz/GWec4bVVlD3waLimtLpVw872Qsm8DE14bp463DtWw86Mc0aZoVHDszR44jB19Y2hJc8P0iN6SBNv7qrCpS/o1j+vUPfrB6vf2V3VOvHgI3ByPxilYbP6aNzofvKX27USjMM3DHbfG9jus0QvDHpE+sNE57Od9sGPaMPAUbqiuPrXTE19/Cv1GDdaKQtKn7ZrX6Fy13+jNVssyMtR+kv/1PrLx2n05SVLEZc+nydrxgPDNCUpYB1504q52ebT6+VnDzz6o/RQwPoy7vTm+D4j1j5v6sm69YYeKp7i/Bf0z6hbD64Xb1ybH3f+Shnfvo8JLQOWy/3OZquPs576JTrf8QMjNDG6vwZf01sprZMUV/wV2ToeLd0/QcO6eL0cNr3RUQ9pwk0hpl3iO/J67cnSyqXZ2mnta6dq9BstD1n+ili8eLHXBgAAAAAAcHT06tnTa6u8kuGnlfb85BN9/9hjKtqyxetZOqvvM/6nP1XzkSMVVb++289KhGbdf792fPqp2x2sOoefffr08fqUHB5K4PCcnMo+4dwXfs7uVTIQLBG+lRF+mvx1GUqbOUOpc5Yoc0+SBj7wsAZ3jDskxDMHQ8VyhJ+DntSKXr3VoYE32JWoHlf1V7O00qetfZma9PtRSk24TP3P76LE2uHDz9Lns5kvII7rp+QW3kBPh4uHqXcrr8MvTPiZNXG47lwxWOPv7618m/a0euqXXHI+dFo/DTs/6ZD5cbtLGb/08NPptjo9Z6dp+qxUZazIUdzZw/Xwnb2VGGXr+GUlPjNG/Zv73mrcec0JE6wGhZ+56WN1zz+y1PXn/Zx1kXBEws+EBH/ECwAAAAAAcOTNmjXriISfxbe9B9btWd7g01jJ0JwpU7Tqyiu18/PPi+sCjW7a1BsDR0NcXD1pY7ZXZ2TpCq16ghbJ6nfDKI15YYLG/yZJUx6ZoCXOsISEZtKO/JAPIipbLcXWz1dSj6Hu7doHm/7qWr8c016aqgl7BmnU/UPUr1eykq1UaokQ9aDSpxXnrA/npUO/oPkIEXyGs2+lZn6Ura7ndXWf3O6uX3VQv6DpWZAZSkXHL2FfofJ3Jaj9hQM14uFxGv/qaPXeMFZPfWzfboISmmcqMzOwKoBCbcjKVmK5AshszZucpq6/Ha0RP+/rrGNnPbdr6Q0DAAAAAACo2dzwc/+ePdrwpz+VqNuzoiww3fraa+60TFTDhqp16qk8BOkoKNyQphdez1D8RSlqbz3qxKme0pS+1B0se0DOzPleuwqV8eIwDX8uQ/mBT/+uHatazktMl2T12DpFU+d7j8/Zl6V5c93aQF1uqDc33VeHpyN7zkzN87U67CFBSUp7abwy8rxeeRl6+akZyip0pt0tRb2daU/y13uZl6nUOSt97Z6YrVnK9N6bO3+KJpYcXKz0acUp+aLeypk0TlP8z0BylmPGUy8cnK9wLHjc4MzzqIc0vekw3erVoxp3dl/n8yZq3HsHa8bMmjZWL/jXU5CKjl/Cpum6/8aHDs67p15tu/c9Sb0vb19iHecvGK/n57RX/z7lCFY9md9581WYpSlvp/raAQAAAAAAajhfyU+7831fYDJ2+Jrddpva/e9/avnww14fHI6VLw7XoEGD3Gbw78cr99xRevIaN/qU6vfWsJvbKPVhb/jD81TQ2DdIilGPmx5Rv41jNeyXgzX0xsEa9p/N6v/7gb7g1Hnv8If6ac1TQzX4RqcZOlYr6hwsURjXa5iGtUnVI7+0aQ/Ww+kFxbedm6QrH9aoc1dojDNdm/agW19WTrdkJVluV7uHhjnTznrem3dnWG5gGN5lkO7stULjbvRNe8QHsUpxZip3V4jynWVMK+7cYRp9fYJm3OMsvy3HdfdrdvM+6uCriSGEGXrEpuOsk2EPvKysbiP1z0f6KTHKGxznfN6fhiph2kgNum6ohg4erPvnJqpPJysXGkJFxw/Usr9G3d5MM3/vzfsvRym91QgN6+V7b+KP79dDF/rW8eDrnPX81xXq+/D9vtvly5So3r8aooT3nPmy5b3xSW1ok6I45WtXyKfqAwAAAAAA1BxunZ/7d+92b3fPmzPH6105oery3Dl3rtYOH+51+VDn51FipRj3SHEHn5ZTUmG+8gtiQw93b7123ls/pmS9nH57nPdGxQU8iCdIwPsPUdowY/Nlt66Hm3agsqblKMzLl+rGKcYfZB6uspY9WEXHD1DqvJf1/ZahMK9QMaWst4qgzk8AAAAAAHA0HfE6P8OxEpwdU1NLNNavLJufeUarfvYzbaDk57ETFVN6MBZjdWOGGW7vLS0Yq11GmFfa+8uats1XadMOVNa0HDH1j2Dwacpa9mAVHT9AqfNe1vdbhiMVfAIAAAAAAFQXZYafkXXrKrpx4xKN9SvLvu3btXftWhVme3U0otqIrZOgxDirERQAAAAAAACovsoMPyuLBx5VX/EXjtQ4f32iAAAAAAAAQDV11MJPHngEAAAAAAAA4Hg6auEnAAAAAAAAABxPRy385IFHAAAAAAAAAI6noxZ+8sAjAAAAAAAAAMcTt70DAAAAAAAAqJEIPwEAAAAAAADUSISfAAAAAAAAAGqkiAMOOf/v27FDB4qKvN4HRdatq8g6dbwun/27d2v/rl1e10ER0dGKatDAaYnQ/vx87d+zxxtSUuB4lfXV/PmKjY1VdEyMop3pxdg0o6Lc9sjIyBJNhPM59mqs3d8EdvvbQ70aa/9s7lz16dPH61NyeCiBw3Nycrw2oPpLSEjw2gAAAAAAAI68WbNmqVfPnl5X5fkTQUU1bKjoxo0PaYKDT2P9Qo1r07BpuePExYUcx5rA8QAAAAAAAADgaPCV/KyGqlvJTwAAAAAAAADlc2RLfgIAAAAAAABADUP4CQAAAAAAAKBGIvwEAAAAAAAAUCMRfgIAAAAAAACokQg/AQAAAAAAANRIhJ8AAAAAAAAAaiTCTwAAAAAAAAA1EuEnAAAAAAAAgBqJ8BMAAAAAAABAjUT4CQAAAAAAAKBGIvwEAAAAAAAAUCMRfgIAAAAAAACokQg/AQAAAAAAANRIhJ8AAAAAAAAAaiTCTwAAAAAAAAA1EuEnAAAAAAAAgBopIj8//4DXXq0sX7ZMsbGxio6JUXR0tGKcJioqym2PjIws0URERLivxtr9TWC3vz3Uq7H2z+bOVZ8+fbw+JYeHUtZwAAAAAAAAAIeaNWuWevXs6XVVHiU/AQAAAAAAANRIhJ8AAAAAAAAAaiTCTwAAAAAAAAA1EuEnAAAAAAAAgBqJ8BMAAAAAAABAjUT4CQAAAAAAAKBGIvwEAAAAAAAAUCMRfgIAAAAAAACokQg/AQAAAAAAANRIhJ8AAAAAAAAAaiTCTwAAAAAAAAA1EuEnAAAAAAAAgBqJ8BMAAAAAAABAjUT4CQAAAAAAAKBGIvwEAAAAAAAAUCMRftYguzcsV8bCVdpa5PUIZf0cvfL+cuV5nQAAAAAAAEBNRfhZxW3NeFOP33uX7rrL14x84k1lbPMGBto9T68+9b42NW2txtFev1ByVyljcZZ2uR3L9crv7tLYNKJQAAAAAABquryvp+mVzzZ4XcCJISI/P/+A116tLF+2TLGxsYqOiVF0dLRinCYqKsptj4yMLNFERES4r8ba/U1gt7891Kux9s/mzlWfPn28PiWHh1LW8LLsXvJf/fGlDTrzhhEa2LW+oovytPjtsfrv1+00/NFfql1AdL01Y5Iy6lyuSzrV8fqE4UzzrveSdO99l6iZ07l19Srp1HalB6ZAdWDb9ouLvQ4pun5Lde47QIN6t1P94/hnnqL8PBVG11edWl6PqqRot/J2S3Xq1xGHgBPJZn302OOalu11mug6atnlUg36xQU6tYyfkYqzP7Q9p20/e1Qjetf3+lXO1o+f1J9mnqzho53fQK8fgBPP5g8f1+PTN3td0aqTmKTul1ynAWc3Lv49q8jxomh3nnarjurXCf9ruPy1u/TctoF69PZesiNZlf59B1C1BV23FEu8vPg6vTSHe/xxj6EbL9ffh57h9QGqrlmzZqlXz55eV+VF3X///Q977dXKlh9+cMPOSGsiIxUVFHaGaky4bn97qFdj7evXr9cpp5zi9Sk5PJSyhpdug6Y9965yUn6r4b2b+IroRtZSs9PjtXHae1rXsp+6eUfFoi2rtPTbzdqyY5diGjZX47olk5689Rma/dEXWn+gvhoXfKtPvm2gXr1PUz3lKXvtRhXEtVB8bW/koq1alfaRPl2Z60yroYq++1pbYoKGp3+mT9PXaEdUvJo3qUvxYVQN2Qv1wYLG+uWjt+uXF16o87s21Nr3xuuVLyLULcXZ3g9nd6y0zUr96x/1bkE39TqtntevCvn6Vd37t6VK6tetzJMs1CT5WjNnjradPVz3/eoKXejsLxemtFPRgkl6NXWnOvbuqPgjur80VdJpp+mMri0U9PNUYXVbnKLTTu+idg1JG4ATWf63czQn9xwNv/cmXXHh+eqRtFfpE/+jyetO0nlnNVOMM05FjhdLX79Xf/86Sf2c94bTNOk0ndalq1q4B7Iq/vsOoGoLum5xz8W887FGsWWdLB3+8cc9hu5sV+oxD6gqvvvuO7Vq1crrqjzCz6D2UK/G2o9p+Jm3WB9My1KHAQPUMd7rZyKaqWuvnurctJZiop1D32fj9Pjzc5Vbu4Gid6zWJ++8p7Unnaduzey0z/6q86T++NoiFTasp8Lv5mjqvI0qiG3thZ8r9O4T47X2NC9I3b1Y//3j05qxua4axWzT4g8masbnC5XfxhuePUfj/vJvzc2powa1dmj1J2/rvYCTTOC4ck8iIvWj/j3UqlYt1WrQQl16nqzt77+hr+r01DmtDl785K1frs9nz9aqbTGKb9HYC2TytDZjjfbWq60tX89W6mdrtKd+oloEXTT53jtDizbFqn7jps6+4OtftHG5Fm6LVD1n353xUbYSTovU+sXLtWz5Cv0Q0VgNa9dR06b1fH8syNug5fM+0YwlmxRbt7Ga+j9j72YtX7xFtZvu07q0jzTNGV63cZL7Bw3fHzHmas32wHn2sT+AfDHnU32VFRFinmqrqTZq4exUfREwPO+7DH29dJUWr9ureomxqlvn4B85wi0jagpf+Ln5lL7q27mRatn+4myHp50Zp/VTZ2pLm77qUt+3LUbWy9fiDz9SdkJntYhz3ro/TxuWfa5PPlqkTVH11bhJA9VyfuqKsldp4do9ik9sUPx74G5/3+9X0yYHtCXgD22lbZfFnH1h1Wep7j4QuI8Ubdmg9TuiD+5LDrZX4MTjXrhvOkV9+3ZSI+cYVrfJaTqnW20teHOytrTvq84JIY4XIY9f9tv/tZauWKx1e+opMbau6rWIV1Twb3rnFjqQ/Z02FjZQizq5zvExzO87hQQAlEfwdYu/CQw+Q10vuNcKFby+cBVp64rZ+ujTVcp1jk31t2doblD4yfkUqirCz5oefm5foU/nbNEpF/bSaXbBGSAy1hd8am+GJjwzT02vvV+/uby7zuyWopSm6/TuKwuVcEF3tdg3TxP+tVCn3fwn/erSM3Vm9146O2qBPlnf3As/N2vhBwulbr5wc+37z2rKnsv08P8N1DlndFNKn/bKS0/X3k42vEgZE8ZqXqPrdf+tl6u7DU9J1Lp3xmthw4vV/SRO7XCcuScRtjkHlGKMaOpcuMzVtLXxurh7kntiYH8QeOx/axVTP1o7Vn6it6et1UnnOu+JsT8GvK5p8+cpa08tReevUOrU97Q4upvOa2N/Vd2txa/9Uf/4cKPqtGmtWt9+orcmzVNEt/PcffSHz/+jce9+qvnp61VQu5lO6xylVZ8t1LqNPyhfUToQ3VRt2zfV/iWv6I9Pf6iNdduqda01+uSttzQv0vuMbZ/rP89O0qyla5TnzG3kliWa8u4crf/+C01fuMM5KdqrdfPe05Rl9dSzRyvZOYlVj/HIuC9V0KCO9m38UpNtns5w5qm+f55mKeOrddpVK1p5S2do8ic5Ou2CLtq/7GN9sTJbG3MKnGNKgXOxd6ZaNSzSqomj9cQ7qxSV0OCQ6aGm8IWfG0/qVbLEQGS2Fn/4lQ6c1U9nRvm2xU/nz9X6wrpqdmp3nVp3lSY98YQmroxSfMN9yv5ist7ySlY3KFqi1/7+oQ6knKdT3RC9SF9MeFwfFKTogg7fl/hDW2nbZWP72dz4kZ788yv6+kC8GhzYpgUz3tCMbafpws6Nfe/9JErd3d+w0vdJADWXG35uPMk7n/XUdn7n103TnJ0ddWHH+JLHi/2b9dHf/qi31tRSg3qFAcevBlr7yRdasXmjcgsiFb2vnk46o5X2Bv+mdz9Vmyc/ofFrT1W/9gX6MsTvey0KCQAor1DXLYHsXGj0W1oV3UD19mXry8nO9YKc64WTtoU8/pR6fWHnS+Mf0dMzflDdppHatmiaPl6+WwWNu3jhJ+f/qNqOVPhZ6cQqNzdXixYtcpstW7Z4fXFMrf5ay9RJKckHK2irk9xd7fYv09ernY7Vq5zh7dSpk2+Yqd+osdcWbKtWrc5Tsy6d3HqMXJHOyVus165V+nq51KlHsoo/rU6yuneQlq1Y5fUAqp46des6m3ees4U7NkzW89Oln9w9Qjdee71uvPM+/bLFYk1L89cbJp05+FGNuOl6XX/LvXrwZy21Yeanztbv2Julbequ6533Xn/pJRpwyz0a2GGD0uaudd/niuul345+QCNuuUCn1u+ky6/trzOdHarBGf11/U9s3ypS1g9S92tHasS1l+iSK27WPVd11obP5ungVBrpolt883f9b36nX7bdqmW5Z2vknTfq+mtv1IhbL1HjNfM0zw67ezP06kurdOZN9+pmG9+Z59/23KFpHwbUIRSXopvv903v5rsHqnO+c9xYL7Xs6Yx/QUtnhJa60BnW62SndcP7evOzaF1y98Hp3XNxkaa9MFlUiV7D7c/TqikztTiys05v6/VTA/W6dYweuP1mXdDG2Tw+fFNzIi/RPb+/2dkWne3p9/foksJpev59Z+uI766UNhs0f5H3AL2987VkeTP16GHbWAhhtkspT3PemaY9PX+re29xtkFnm7/njstV97NpmhP8bL7y7JMATiDRqlvLOYps3+F1B1g7R59sOEOD3N9SO+4MVnL+V/pqfUv1crovtGuqVhc6w3o5v4qewN90r5crzO97xpRJympzve7z/17fd73arfivXp1f5L0RAAJt0CevvaJXApo57rmQc8j67BNtOH2Q7rFrkmud64XBydqx8Cutrcz1xXcfauLCRhpwv+/8/sY7H9Xg092P8eH8HyeICoef+/bt08yZM/X000/r3XffdZtx48a5/WwYjhDnm4l2DmSFIVapVXC8e6/Tst85mWrUWI18vT0N1CjeGWe/02rDy80Zt9BrDanQmWZjNS75YWrQ0DnyFpX6RqDK2Lp8lbbGN5bWZCgjw5rl2lOnvjZv9Iefzv4T8PeB+qefqZa7M7XWHgxTq50uuPYnape/ynvvYm3YFXSRdVKSmpV6VI1Wu4uu10867NAqdxoZWpzlTCR3mw5Oxdmni6u6qKO69gdbZ8cr/qNEVIx7bJDt4/YHkP3NFL3bvzwZ2ua8X99vVnGcGzhPteo6783TthDXhcZdPy27q0cLr4ejWffuarZtlZbxN64aZ/P0x3XXXXf5mt89qOcWNdTlv71OycW3OTVTUvG2sFXLVmxVy3N6HNyeIpupe/dm2rpimTO0vlJ6OCfaX33lbGHOz8KSJVp2copSEn2jHiLsdpmpVavrqF2ngKgh8UKNePQWpQSX5izPPgkApmVndYpbrGkvfaSM77Zqd1Syrn/oXl1+8IauQ5X5mx6IQgIAKqq+kjqdrtMDmiTvhD+pUyfV+Xqa/vthhtZu2S0lX69H/+/ykn+IKVb69cXWVauUl3imOgVUpdeocQOvjfN/nDjK/ZPut3z5cn322Wfav9+uvH2s3frZMBwhTTqrXSPnYnNlUFGX/Yv1yoMP6o2VTnuDRqq/ZYMyLQj127tJ2bn11ciOZzZcRdoVODysxqrfWNq1yzm4hmSh6lZtWB8YqBZpU3ae6jc8ePAEqprdu5wf/3p1VNdpL7I/COzbofXLv3YuUnzN+lrtlNw2TInoRo0tSvTkKeO5B/Xgy59qfXAJtArIm/+8HnzwFX264QgENLY80bu1LWB5vt7dSMlnJLnLW1Hu+imxzI6G9Z1uL2xF2TZN1tPvbvI6DrXp3ac1OfzgY6rx+cP16KOPOs1ojfnr3zXmoZt1SZtwj3p3toFCy+FL7iuN7Y8JTn9nqKLP7K7OG+brq9wiLV64TC2dE+fi0L5CnN+bBK/VFa069eso+pAzliOzTwIItEmTx052/g2jjGPc8eU7561TJ8RxrFYnXf/7e3R50ialvf5XPThypB6fuFzhznorjkICQFWxYOzTWuC1H2qBnh4bfuix1UDtkpOVHNCc6gWU0adbKfLLlfRDmt546kGNHPm4Ji0Pf8Qq7frCPb8vBef/J7BqdN1yJFQ4/Pzmm29ClvC0fjYMR0pLXfrjztow5d+a5g8c3dsSP9TiOinqZUXVT0lR78RlmvJGhvLswOQMz3hjipYl9laK/SX7lLPVvdEyffr+Kt/woq2a83m4vz5H6+zkzsr74iPN2eL7vLzVc/SVlXhznaqUc5tp2ZRXlOFdZOZlvKIpy5up93mh/wYFHHf7Vyl9fp5annGmG8LUtQuiqFPV227pCGx6hrk1d/16ZaqOcyHltGfP04fLW2vg3TdrwPm+E5R2JQKa8tiseR8tU+ur7tHNV1zgO9Fpdxh/PIitqzpFjdV1UNDyuLfAVJwbZDnLXOKm4U2btd45/anf0OtGKZwT6mudk4RnrtXtIU4kNr17u659xjnJcMapCqfd0XUbqH79+k4TKlgM5vsDWea6kreUZ32/3hlkJ8iOWsnqccYGzf/8E3213PnNSK7MVljH2U83KyvL63TZA0mWa3PwH/KOyD4JINCCsdfq6SlP69rbQwSgzkXS7d4x7umvvH5VSe48pa+oozO7tvN6BNi7W3mRzZR86fUacd9ojXl0oBp//pwmfu0NP2wUEgCqAjvXumfKZN3TN9S5lnOe1vceTZ5yT8jztKrE7vSMTkzWJdeO0L1/GqNHf95Yc16YqNBFzUq/vnDP7wt2hf1jD+f/J6rqdd1yJBxyubN27VqNHz/ebaw9kJXwLCoK/FEvyYYFlgg1pU0Ppavzo5t1788aat7TIw/elrjyZF1/9y/Vzv3mmumS225R9+8nuH/BHjnyQU34vrtuue0Sr+LklhowbKAaLBynB3/nvP/3Y7XKOfELJ/rs63RL8lZN/rPv8x6dssM5GHoDHc0u/q1uOWuzJjx4l/NZd+nBCZvVfdhvdUm42xqB42V/kXZvyNCbf3lO8+Iv1/W9fSFM/bN7qPOOTzVx+ga3pJpdmGz48Hm94k/0nZOHRV95w+yPCanpymvT3a1Xx2ezNmzw3rl+mgKr1gzNK1G9s+TpxuasLN9n7N2gaR+UOZHw2vVQj0YBfwBx5GW8qec/9C9fGdzS4bvlL/AdfWYPnbE3YP0UOfP39qcqOquHzuaJj+XQTXekvqY7OkvLgk4kfCcQy6TOd+i11DucMaubaJ197hkqSpuoaf59YMM0TUwr0hnnnu0M9TnjRyna9vE0LevQQymVyT7VTj1+1FiLZ06T9zHKmz9Rz72zWDtCPjGkovskgNJ0G5Gq126zg1hQAOoFn8vUWXe8lqo7unv9q4Ki3dq64iON+9skbT7javUPqOver2jJq3rwzwf/gO9TR7HewcstobkzfDhwqODfdwoJAFVB8yv/odQnBjhtwQGoF3w6bQOeSNU/rmzu610lFWnxhAf1x9cOnt+7asV651sVu75w78zZka6P0rb6huet0pyvDj7vgPP/E1VNvm4JLSI/P/+A1+5cQGzQa6+9pl12m6ijbt26uvbaa9Wy5cFSUR9//LHmzJnjdZXUq1cvXXzxxV5X+aZXWcuXLVNsrHMAiIlRdHS0YpzGnv5u7f6nvgc+/d1ejbX7m8Buf3uoV2Ptn82dqz59+nh9Sg4PpazhFWF//SmsVV91/FeYwfbudk7Y6qhOyANUkXbnFSomrhyle+wAW7jbOdDGqH6dTL05apx2Df67buzqG+yyYMk51taJCzczwHGw5L+668WA5KNWY5169uW67ufJahyw3e9e85H++9I0rdodrWi7zaNZL910+0B1qrNY/71rooq6NtDK5c4JgTOsKO4M/fLOG5Xi3sa2W2unPqtnZ/pODKLjz9AZLVYpQ/015pYUbf3wcT2+8XL9fegZNnKx3XYbymvLnPecoRv/fqParZmsZ//5qS/Yia6vM846WavmS/0fv1kp2z/S449l6XJnPP9UFo+/S//VjQenm23jfKXu993r+8PDtgy9+e8J7gOQoiOdidbrrAG33KxeLZyToEPmyZbxv9JN3j69f60mPzZWnzrvbXbZvbr30mbO+c6neu7fk33rp6hIdToM0K+HXaCW7O4VsEmTb79WT9s5w22v6X79+eAJxD8G6Pifbm/WR489rq+6+77zkNztrOS2aL8lG2Y9p39PWaXdkdEq2l9H7fr/Wrec37I4/NT+5Xrzgee04+djdPPZ/r4lt7uyt8utmvfKWE1a6PzQ1HL2w9h2GvDrW3SBsxG67/2qu+69z/7IV/o+ySYLVF6JC5/7pT8XB5//0IAqkBm4x4LpARfvcS3V+ZJBuvr8U4vr3Aw+XiyfOFYvfu68J8Y5fhU6v3vn3qQRgzr5xv9usv709Kfaur+ZLnd+X89YGHycOvT3OPj3/Yz9eVr+zrN68TPnM5wDUJHzqb1u+K0Gnl6pvwQBOBxfPa2+/+dGnXoytbfSAoLPKvHHm+DrlmLe8WT3ck36x4uas9E5nNi5kB1Pho7QwE6+I1yFri9qOeMvn6SxL87RZnd4S53RbocW1xpUfDzj/P9EVtWvW6RZs2apV8+eXlfllQg/09LSlJqa6nX5XHjhhTr//PO9LiknJ0evvPKKtm3b5vXxadSoka6//nolJBy858xm8pNPPvG6fPr27avevXt7XZV3ooWfx0LR8jf16PTaun7IRWpeq0CbUv+rcfOb6ZY/XK9O/NUHNUzR7jwVRtYP+IOBBTDTlGShYpNSAv6i3cortD8OVOBs4JA/Tnh/kLDbjb0+h81u6XP/aFHRKYaeF3f9xJTyBxeU4eCJhKsKnUAcvqOw/YZi+9peZ5su6w9tldknAZSpOAB1VZ3g87DYH/DzwxQIOCK/7w4KCQBVQ3EA6lNlgs+KsPP7ojDnQhW9vvAf/0o5f+P8/0RVta9bjlT4WeJn3+r+Cg78GjYsWdGDhZtDhgxRx44d3aDRGmu3foHBp7H3Bk/PPgNVU3Sn/rqp+zZNfvYxPfrnsZq0vrWuv5vgEzVTdJ3A4DNIZHT4i5boOhUPWWoFl8r2HuDidR0RzmdULvwJPS/u+jmiM3iiaa4B//DdSlKzgk9zFLbfUGxfK094UJl9EkCZ7PZR9xb4mhJ8Gvt9t+NXqDuhjsjvu6O0cwgAx073O7xb4Ktp8Gns/D7c8aSi1xf+45/XGQrn/yeqmnzdclCJkp+FhYWaMmWKli5dqgMHDqhDhw668sorVbt2bW+MitmzZ4/effddrVixwg0+u3Tpov79+ysmJmTFXRVCyU8AR9ZyTXrkEzX77XD1auL1AgAAAAAAx8VRue3dz+nnvsbFxbmvxh5ktHnzZn311Vf69ttvtX379uKHG1nIZ6U827Ztq+7du6tZs2bFYaMJNb3DRfgJAAAAAAAA1ExHJfy0kNIeUrR37163u1WrVm6oaaHnxIkT9cMPP7j9y9K0aVMNGjTIDUEtJF23bp3bv1atWu7Djo5ECEr4CQAAAAAAANRMRzT8tIDSws2srCz3dnfTuHFj3XDDDW6AN378+HIHn34WgA4dOtSd3ksvvaStW7e6/W16SUlJbjgaXJ9oRRB+AgAAAAAAADXTEXvgkdXz+d5772n9+vXFwadp0qSJ6tatq9WrV2vLli1e3/Kz99h7bRo2LT/7DPusqVOnunWMAgAAAAAAAMDRELl7925lZ2d7nQfZQ4msJKWVCg0MRcvL3mPvtWmEesCRlSS1zwYAAAAAAACAo+HgU4kAAAAAAAAAoAaJyM3NPWBPbw++Bd3q47QHHn3zzTdavny517diOnXqpI4dO7oPPLJSoIGsNOhpp50WslRoeVDnJwAAAAAAAFAzHZWnvVcnhJ8AAAAAAABAzXTEHnjkvQIAAAAAAABAjULJz6D2UK/G2o9Wyc+ZM2d6bcCJ46KLLvLaKob9BSca9hUA1RnHMADVHccxoHwqu6+Uhtveue0dAAAAAAAAqJG47R0AAAAAAAAASkH4CQAAAAAAAKBGIvwEAAAAAAAAUCMRfgIAAAAAAACokQg/AQAAAAAAANRIhJ8AAAAAAAAAaiTCTwAAAAAAAAA1EuEnAAAAAAAAgBqJ8BMAAAAAAABAjUT4CQAAAAAAAKBGIvwEAAAAAAAAUCMRfgIAAAAAAACokQg/AQAAAAAAANRIhJ8AAAAAAAAAaqSI/Pz8A157tbJ82TLFxsYqOiZG0dHRinGaqKgotz0yMrJEExER4b4aa/c3gd3+9lCvxto/mzvX6yqfwPcDAAAAAAAAKL9ePXt6bZVH+BnUHurVBLb7heoXqKzhAAAAAAAAAI4ebnsHAAAAAAAAUCMRfgIAAAAAAACokQg/AQAAAAAAANRIhJ8AAAAAAAAAaiTCTwAAAAAAAAA1EuEnAAAAAAAAgBqJ8BMAAAAAAABAjUT4CQAAAAAAAKBGIvwEAAAAAAAAUCMRfgIAAAAAAACokQg/AQAAAAAAANRIhJ8AAAAAAAAAaiTCTwAAAAAAAAA1EuEnAAAAAAAAgBqJ8BMAAAAAAABAjUT4CQAAAAAAAKBGIvwEAAAAAAAAUCMRfgIAAAAAAACokSLy8/MPeO3VyvJlyxQbG6vomBhFR0crxmmioqLc9sjIyBJNRESE+2qs3d8EdvvbQ72awHa/UP0ClTUcAAAAAABU3IED1TLKAI65I5VNHa197lhkZxUOPwsLC/Xtt9+6r4FiYmJ02mmnua/HAuEnAAAAAAAnhrDBi9OfGBQoyU2jwmRS5c2qjuY+dyTmryIqHH5mZWXp1Vdf1Z49e7w+PrVr19Z1112npKQkr8/RRfgJAAAAAEDNFhjA+NuPVgk0oKYqb85ljsc+V5H5q4wKh5/Lli3TW2+95XWV9Itf/EKdO3f2uo4uwk8AAAAAAGquwODFmv3794cNY45uNANUH8FJVGDG5c/IAvsFOhb73OHMX2VVOPxMS0tTamqq11VS37591bt3b6/r6CL8BAAAAACg5goMYIqKirRv3z638QcywWEMgJIsl7LGMjHLzAJzM/+wQMd6n6vo/FVW2PDzyy+/1NatW5WSkqL4+Hi33+bNmzV16lT31vdQ7Jb3K664Qs2aNXO7c3NzNW/ePDVu3FjnnHOO2+9IIfwEAAAAAKBm8ocsFrrYM0f27t2r7/v2dfsBqJyTUlNVq1Yt93k9gTmZCbnP/bet2+9YOenG1WHn73CEDD83bdqkV155Rc4w90OaN2+uBg0aaNWqVe5KKI3NXLt27bRjxw53Orby4uLidP3117vTOVIIPwEAAAAAqJn8pcys1FlBQYHy8vKU89OfekMBVEbCe++pfv36bp5mGZrlVv7sKuQ+90ZXd9ixknD1krDzdzh8iWAAW8i5c+e6waexBd+4caNWrFhRZvBpbBwb195j7zU2LZumTRsAAAAAAKA8/GGMlUIDcHhsP7L9yZ/XhXI897nyzF9lHBJ+rlmzxn2o0ZFm07RpAwAAAAAAlMUfgFghK6t/EMDhsf3IX7AxVMB4vPe5suavskqEn5aw2gONyrOAdht8ly5d1LFjR9WrV8/rG55N06bNX2sAAAAAAEA4gaGHtVvjD0QAVJ7tR/59yi9c9/HY58LN3+EqEX5aPZ32kKLSWKWjP/nJT3TnnXdq0KBBuvrqq3X33Xe7/WxYaWza9hkAAAAAAADlcSTCDwA+5dmfjuc+dzQ+u0T42bRpU91www1q0aKF16ckq2T0sssuc5/c7n+AkLF262fDwlVEatO0adtnAAAAAAAAhBUUgBCAAofvkP0osLsK7HOlzt9hOKTOz0aNGummm27S2Wef7fU5yALMzp07e12HsmGhglOblk3Tpg0AAAAAAFCaYx+7ACeewP2sKu5zR2qeDgk/jd2+3qZNG6/rIAsva9eu7XUdyoaFCjhtWmXdEg8AAAAAABCIEBQ48krbr6rCPnek5yFk+AkAAAAAAAAA1V3I8LOwsFBr1qzxug7atm2b9uzZ43UdyobZOMFsWjZNAAAAAAAAADhWDgk/Lbx88cUXNX/+fK/PQRs3btSyZcu8rkPZMBsnmE3LphkqGAUAAAAAAACAo6FE+PnDDz/opZdeChlgGnvq0vTp0/Xll19q//79Xl+57dbPhoV7GpRN06ZtnwEAAAAAAAAAR1uJ8LNBgwaKj4/3ukKz29fff/99PfXUU5o4caLbWLv1K+vWdpu2fQYAAAAAAAAAHG0lws9atWrpwgsvVGxsrNcnvB07dmjp0qVuY+1liY6OVu/evd3PAAAAAAAAAICj7ZA6P1u1aqWOHTt6XUdO586d1aZNG68LAAAAAAAAAI6uQ8LPqKgonXfeeYqLi3O7IyIi1KJFC3Xo0EGRkYeMfggbx8a199h7jU3LpmnTBgAAAAAAAIBjISI/Pz/kE4rsAUZbt25VSkpKcT2gmzdv1tSpU5WVleV2B0tKStIVV1yhZs2aud25ubmaN2+eGjdurHPOOcftd6QsX7bMvT0/OibGvaU+xmksXLV2C2ADGwth7dVYu78J7Pa3h3o1ge1+ofoFKms4AAAAAAAoyR6k7G8Ki4q0Kz9fW7Zs0b5rrvHGAFAZUa+/riZNmqhuXJybo1lu5c+uQu5z03q6w46VqMs/Czl/h5uvhS3KaWFlv379SjwAyUJNK9UZjg3zB5/G3mvTONLBJwAAAAAAQKU88q66LFyodo943TXaELVOW6guHz+jBK+PX5Pn09Ql7Tk1cbseUrtQ6+S659RpYZpaX2cd3rSc8YKbdo+01ElvOu0hPkcapjZzF+r0l2/zus2PlDQ13PiBgj7zq3R1+uANJQ0uWV2juywLP9YpA7wefiXmP5Bvnrq8eZ/KfuoNqruy72MPYqU4wyltGAAAAAAAAI6DJr3UbOyVXsfh2bf4ZWU9cF+JZtObG7Ql4xvnczqqQXAAeUsf1am7V7vnPOP1cKRcqbonO69NzlHCLb5epSn+zIf+pu3r6qvh78er3SO9vKF+TVT/9rLCVI87T85rh15KTPH1Qs1V4fCzQYMGql27ttd1kPWzYQAAAAAAAKhC9u5V9PnD1Op8r/tw7N2i3Peml2jylkkFf5mjXbuaqM4lJUPWpud2UMSWL5XznNfDkXDdOYrdMkc7VtRSnV6BJULDKP7MN/X9zT/R93PyVKvfbWruDXbt26sDTXqp6ZjgUDRYS53U9wxFrEhV3paWqjvwR15/1FQVDj/ttvaf/exnGjhwYInG+gXe8g4AAAAAAIDjb9/i/7lBX4Pf/1X1vX5H3jPKW7FX0R37BpS+vE31O9RS0TepyvH6SFeqQccmKljwstZ9+Y0iTu+lk6wUaAXkvLpIBbVaq+5wr4fZtUg5s7Yo9pL7Sg95Tx6ium33ates32n718743YaUr7QoQus+We1+ET7AbvKLdLXu7nUcJxUOP2NiYtSxY0d17dq1RGP9bBgAAAAAAACqkg367h9zVHRSX7X4U1klI0sX1e6Xajfx3YPNfx+S/2kxP6Qu0r4mZyreX8fm8B+pTt0N2vXqu14Pxy1Xql4Tp9+kL6Qn52jX3o6q54xXIfN26IBqKSqoDF7BiGd9Ie89j4UNeeOG91LtvSuUN07KnbBIBeW89R6hPK12F/ZRrVZ/VKcQAWiTX6xV81btFXdhulp6/Y6HCoefAAAAAAAA1YL3cKMSzYDW7qBaA4L6O02NfgjS5Nu0ZV6eYi+7T0mHcfv7gZxM7f7mm4PNqkwVesP06nTt2lJftc8f4nY2P/8MRaxfrK3z3E5Xc7vlPPMLZbv9fKVFY7tcqTh36OF6V9+99IX2nXxZmJD3MjU5p6X2ff2xfrDOeW9q1/paqnPuMHcoKuoOrXryD8rfK0UFBaC+4LOhtHe2Nj3ZQxu8/scD4ScAAAAAAMAJYMtvnld+XkvF3/OYor1+FbV/yxclH3g0+mXle8MsfLRbyaNOv1hNdbfqtZX2ZjxzcPjJ97n9DtQ/S6d4JUfjmxU4/c9Rk+AHJZUmpYEinJcDeb7OEl69RT/4Q96mXj+/AT9RHXu8fcsrvZKr96lOnb2KOOPiCt96D79nlPmPkgFoieDzHwO0xRvzeCH8BAAAAAAANdNDV2rpWWeVbCZnuoP2Tg7q7zSrHnIH1WAvK/MFKxl5kRLaxXr9DoqICro5uUFtRWqv9ud63eWQO+FLFdTtoPrP/0i19Y3yXzhY5s+95VwbtGteQMnRjC+0J6+J6v7UV1q0PBIGn6nYfd9o15tejyD+kLfhgE4lgq+mPztH0XnOPGUEfP68RSpQR8UNO543Zld3JQPQqhR8GsJPAAAAAACAE8Wrj+iHLwsUFV/L62Fe8N1+3usxNb/MFwLGnnObWv/iDEV8v0jb3nN7lc+8d91byeue01Fa/YW+X+/114/U+Exn2qtTlRlYcvSB32nrIn9p0dLVPv+XOun593XS+fW1971nAqYd7GVt+O8X2h9f3y0h6uM9fCljvNaV+PxHtHO1VCv5tiN06/2J6mAAWpWCT0P4CQAAAAAAcMLYoC2PPq/8EqU5N2jTPc8qb1cHNXnsfbf+0/bPD1PdXXO0+Z7fKfDu8qhz7j6krtROzweW2vxC2XO+cV73alfq33y9zIAhqntSUD+P+/T2umeo4e9Dl770f2bbsfcpoV2Bdo7/nVY9NMcbGlrBeAt5D8557O97qW7dDdo5YbrXx2+Dvp+1WAcqeus9QrAANEFLq1DwaSLy8/MPeO3VyvJlyxQbG6vomBhFR0crxmmioqLc9sjIyBJNRESE+2qs3d8EdvvbQ72awHa/UP0ClTUcAAAAAACUdODAgeKmsKhIu/LztWXLFu275hpvjMNkD0Ea0Nq97b3m3+ZeCSf/SA3OrK99i1KVH7ZkJaqjqNdfV5MmTVQ3Ls7N0Sy38mdXIfe5aT3dYcdK1OWfhZy/w83XKPkJAAAAAAAAn/VfaMd7BJ+oOQg/AQAAAADAicN7CBKlPoETA+EnAAAAAAAAgBqJ8BMAAAAAAABAjUT4CQAAAAAAAKBGIvwEAAAAAAAAUCMRfgIAAAAAAACokQg/AQAAAAAAANRIhJ8AAAAAAAAAaiTCTwAAAAAAAAA1EuEnAAAAAAAAgBqJ8BMAAAAAAABAjUT4CQAAAAAAAKBGIvwEAAAAAABVUoT3CuDIKW2/qgr73JGeB8JPAAAAAABQpRB6Akdf4H5WFfe5IzVPhJ8AAAAAAKBqiSgZe0QEdQOouEP2o8DuKrDPlTp/h4HwEwAAAAAAVFkEn8CRU5796Xjuc0fjswk/AQAAAABAlREYfli7NZGRxBfA4bL9yL9P+YXrPh77XLj5O1wcPQAAAAAAQJXjDz0sEImOjnbbAVSe7Uf+UDNUqHi897my5q+yIvLz8w947dXK8mXLFBsbq+iYGHflxDhNVFRU8YoKbGyFBa48fxPY7W8P9WoC2/1C9QtU1nAAAAAAAHCoAwcOuM2+fftUUFCgvLw85ebmaufOnW639bfhAMKzXMqyMsvP6tWrp/j4eNWvX9/ttv423J9dHY99riLzdzgIP4PaQ72awHa/UP0ClTUcAAAAAAAcyh+y7N+/X4WFhdq7d692797tvhYVFbn9DQEoEJo/k7I8zLKyWrVqqU6dOu5rTExMiZzMHOt9rqLzdzgIP4PaQ72awHa/UP0ClTUcAAAAAACEZiGLNRa6WPhiJc+ssW7/MADhWS5ljWVilpkF5mb+YYGO9T5X0fmrLMLPoPZQryaw3S9Uv0BlDQcAAAAAAKH5g5bAQCawX6BqGWwAR0FwEhWYcfkzssB+gY7FPnc481dZhJ9B7aFeTWC7X6h+gcoaDgAAAAAAwgsMXMKFMABKV96cyxyPfa4i81cZhJ9B7aFeTWC7X6h+gcoaDgAAAAAAyhY2fHH6V8tQAziK3DQqTCZV3qzqaO5zR2L+KoLwM6g91KsJbPcL1S9QWcMBAAAAAEDFHe2SaEBNcaSyqaO1zx2L7IzwM6g91Kux9s/mzvW6yifw/QAAAAAAAAAqrlfPnl5bxRF+BrWHejXWbuFn165dvT4lh4dS1nAAAAAAAAAA4S1evPiwwk9fIlhB9pj7goICrwsAAAAAAAAAqp4KhZ+7du3SjBkz9MQTT+jxxx/X22+/rc2bN3tDAQAAAAAAAKDqKNdt7xZwpqamavXq1dq/f7/X18du7W7evLn69OmjDh06FN9efrRx2zsAAAAAAABQsx3ube9hw0+7tX3FihWaNWtWuUt31qtXT+eee67OPvts1apVy+t7dBB+AgAAAAAAADXbEQ8/9+7dq/T0dH3xxRfauXOn17diLIA844wzdMEFF6hBgwZe3yOL8BMAAAAAAACo2Y74A49++OEHzZ07t9LBpykqKlJGRoYWLFjg9QFQGYXZaRr760Ea/McpWpnn9QQAAAAAAEC5HJsKOgFUXGG2Mt6eoHn1+2vk8P5qX9/rDwAAAAAAgHI55Lb3rKwsvfrqq9qzZ4/Xp/IuvPBCnX/++V7XkcVt7+EVZmdo4iupUq+hGtQjUTFef5P7bbpmz0zVzDlLlBPfUb0vH6zBF7dXXJQzcF++shakaeYnqUrNyFbcacnqd9VQXXZmvGL2ZCr1pQlamniFhg3o6o5fuHWlUidP1Iy0NYrp3Ef9fz5QvU+LcyZUqOzPJ2j8nAIl/3Ko+rby5iB3iSa9NEM53QZr6Nm7NP3FiVqwtdA3zFP31Is09NoUxa5I1cR3ZyhtaZbUvGvJ+awJ9mRryRzne3C+i3nrpKRufTX42kFKbu6tK2d4xnsvaNwbGco/tbcGDRyofj9K8q33dal64fU5ynZWXUxMvBJbtlaHbilK6eL7rnMXTNDzH+Qr5fqh6t3S6ZPvTMv5rLRZBz9rkPNZPfyf5cj/Nk1T/jdFqUsL1aZ3Pw0a0FftGx8cXhUUbkjT+FdmakOIQ1NMq4v0s9Oz9P4n3nLHZ2qKbV+5vu0rpna8kk7rom7npahrc9tGHbaOP56kqTPmaX2DZF12xcF1DGd9b8rQlEkTlfr5SuXEJKnr+QM1+Kreal07VxlvP6+p3+zyxvSJqd9e/X7RXVn/89Z7ZF3FJyapdafu6tOjveJtc8pf6fteQu73vZVYRTY53z6Wobjzh2rwud4xtDBb6W+M1+yovrr5qmR3eco8Bs7crKSLg4/DhcqaNV4vz8lRa2fY4C65JbZVZ02q7snJGnCF7YPyTefjTNnajompq4RWXdXjvN5KPtX5nGqyPgGgyvMfT8P8fhWfewWeg0TFqOW5V+myuM/1unecVmSM4ht752XJrX2/fY7cpZM0/oMcJV/tnZuZfb7f0xmrdjm/DM4xvm6ikjp0UUqPM7Q37SVN/TpXhft8oxZzzvu6DBiqgV3infOYLKW9PkEZ8f001Dk3j3fPXyrx+xPqN+TKZpr38kRltnCmfaXzm+dNO+uT8ZqwNEG9zirQnE9Xalfw/DnrJPFHgzXkx60VG/Y38vgIPH+239qY+olq3SVZvXskK6lumO/i3JSD58N2nTR/hiZNnq6MHScrpd8VGnhxshL32PXNVGW1HaRhlwVcq7jXPU7/1oN0VdJXeu0j3zlqyr7Z5TrHCHvNVnjoNZlvEuGv/2o+b7t390Pnu62boKTW7dWlR4qSW/q2uZLXR7ZPhrjWPDfG3afSN5XcJ1zOee4Vg85U1pT/eedszvlafKLanNHD2Ya6Oudc+VrpXLtNzOqgq34cp1kTw1+zDLmmt5LEdUi5eMfJkNcdNwxW18LQ1ysJy53ve3rpx6g45Stz2suauK61Bl3fT629w1NZ19ouriOPiyN+2zuqu0Jtnj9Vkz5P15QPM7Q54KCbu2iC/vz7MXp5fqE6nN9XHbREM55/Qi98nu2cXNkB+0mNfPwFpeYkqfdFXRS3Nk0vjxmn1LXOnr+vUBuWZyhjg++kIH/tDI25e5RemLtTrXunKGlLqsb+foTGfpLlDi/I/kbp6TP0wvjpyvTmobAgV2sWpGvFD84YhTu1YVGGlmTmaK9vcLHC9akaN+YFpe3toH5X9lMXdz7/rHHetKs952Q19dmReuRfU5SVkKK+zglK9ueTNPpp79b2vJWa8OgIjX4jS20u7q++zTI18a936v4X02W/tQW7NmjJ/CX6ZvNeFRY66zR9gsY+PFrj053v0fmvIDdTGQtW+E7Qnc+aMW6kRj/vfZZzkmWfNebJCVqSazNjJ8JjNeL3YzUjO1EpvVtr59wXNOruMZrybb6NUAXt1c6NS7Rk6RKt3+nfevapcHvAcvu3r9XO9uX86BXmb9a8t/+pR+5xlnOdsxL96/ilJYrp0lcpCSXX8QnPLgKfHq0Ji+sp+acD1bdtgTLeG6sxr6Q7JwIFylnrrNula7SzyBvfryhgvRfuUu7qVL381Cg9MWmJcu3ko5T9virx7WPOMfS58ZrnPwHeV6DNK5xj4LfZskphynUMdI53k6bOU1bgyW9+ptKmznC21XQt2Vrg7MOB26qzbWctUbpz8jzqH9Pd9+VnO92Llmiz86GFzjpdM+sFjb7nfr28wNmBq8n6BIAqL/BYHOL3q/jca8uhR9tCO957x2ntd87DVzvnv2NG6uHXMrzfvmwt+WCK0j6foSlpmc7ltme/83v6rfO7smi97HSmMG+95r02VqMeeEHf5O/3jVOQo2+c8x13vnx9iuWvS9OUaenub8qSgACzwr8/oX5DCpxhGRlKe+MFTbTfG19P7dq4VOkZa7S7+Pd/r/PbaOdka5QTcE6wq4zfyOMh8PzZWdsq3LJUU/41Wnc+Nsk5/w7zXYwap3RLQCyAGX+/7hwzUZkNnPPpLjFa8tJojXjUOZ/e30yJ+1Y46zZVKwKqqMpdMVNT5qyQEuMUvePgOWp5zjFKv2YreU3mE/7670Thbvfufuh8t873lzH5nxr9qHNdu8HWUsnrIwu3Ql5rpm12rih89u5Y415rfJMdUBVgYb4ynf3Cd85WqF2bnW3oH49o5FMznH2tUDnOOVzG8izt9Hbf0NcsDq5DKqCU645d4a9Xtvi/yDDHKFfuCqW+l6r0j6codaX/OFfyWHHotbaD76/airr//vsf9tpdO3bscBNVq7fzcLVu3Vqnnnqq13VkbfnhB7ekZ6Q1kZGKCirpGaox4br97aFejbWvX79ezZo18/qUHB5KWcOPivx1+ujlV7U0xzmncs7CEnv0UYdGUc7BOkuf/fcZfVR4oUb+cYR+1usc9b7wHNVeOUNTv66nlC579P6/31V2l1udH9vBuqBHT114XgtlffI/pTs/CRd0jNbyT1KV2ainLkuup+VvPKVJ2edoxOj/0y+caaX0PkeN132kSfMj1KVXV9XJ/FQzFm915mGZtsanKKVdA3fe5n2UrvwOl6pvmz3K+DBN+effpT/e/gtdctEF7gOyep51knZ8/oZeXRCvX/zf7zTImXbPC89T7WUzNG1NE6X07KCEaG9Zq6n8r/+nsa8tVcvr/6IHb3IOmD366sI2WzV7cqp2tO2lNute1dgZhfrp/aN12xU9lNyzt86IXqZ331+h+O591Gb/Un00M0tn/fpP+v21/dT3kj5qsXmKXpuZpw4pyWqwea5mzN+jzn376pTcGfrvy4uU6P+sHzmf1W6H5k39UJtO6qOUpt9p6rMva1nbYXp81FBdcE6K+qScouy0SUrLa6c+3ZNUu4r8iSSqwSlK7mXbSR91jlqp1OXNdM2oBzVswEXq3a2lItcdXO7OdbM1v8T21VeXnttAKz9+Xyvqn63TcyfqH6WsY3efOYEVrv1QL7y1Wm1vul/Dr0jROX0u0FlF8zUlNVutzu0qLflQ8+tcqfsfulU/u9i37/Y+r6taRGwsud4vvUzn1FupSW/MVdQZvdW13tag78W/359Spf5SWrhlkbOPrVB+wQat2JGklO7O/B3YoczZH2lR9FnOttRE375ZvmOgtmxVg2Rn2ZvEutPOXfyu/v3eatl1SeNu/XThyfkBx8Jr9JOfXKa2u+YqbXGUujrH6DjnBP2jlW005IF7deNPL9KlF3TSjvSp+jSvtS7sGqulH1f99QkAVd6e0n+/Omj5wXOv6/u5x9oLzu+t5DYNtHOFc7xfeUrxcbpv30vVyTmOT52drw49U9QsL00vv5Su7P3Ob8D2OJ3Z60w1q+V85v58ZX42Q/PjBni/p311wRlRWjT9Y23vdafuvam/LvpRonLnpGnHebfpj3cO1iXnp6hzYm1ZKcQVU1/Q/1blW+qjwpPPU4ozL1Harx02PxX+/Qn6DSl01scHacosyNfqzAK1PTdZLWoXauvXM5X6bQNdcP2v9Yt+zvi9u6uB8zuVHt1P9/7hNg28uLfOaR2hpRNK+430lv8Y8/22Hzx/vuCifupz0kZ9+v6X0uk/UsLq1BDfxYda1+I8/Shynv71Qpoa/+JPeviWS3TO2b3Vs8MezX/3fW1o2Vc/brdLn338lfZ37qNzTrLvJ1eLJv1Xn+an6Lpf9C5xbt7WPY8v5RyjR20tebmUa7aUZlo3y7smO8c7Tw93/XfC8LZ7/37Y/1L169NWO2a/pqnrE9XzR6dIxdcJfRS//K3Q15rr2ujaEcPcc9uU1s73++k6dRj2sEYN+YkusPPcyM1Kd8679vj3GWc7OadhpmZMX6aGyeeqQWaq5m5J0kU/u1KX9bX9KdQ1y0na88ULpV7rnejXISU4x7rMz53jZIjrjiabw1+vtPvFzbruJxeFPka1TZAdFXMXvKV/f7xOhcrXlugOxde9wceKktfaZylqAd/f8bJ582a1atXK66q4Ix5r2G3n9oT3hg0bqlat4/DLdoLLXz9Paevi1eP6IeoRv1Jp6d5fmPOztTKzUPFn9FAH/+0btZ0f3EHDNOyS1or8YYVW5MaoQ4+uaub8ZpuYpl014FfD1L9Tgq+H3671WvJ1ruKdH/6uxdNqpq49uihu0xKt9N1P4ilUxpsva7aVtiuXGNVLiFds4UrNmDpbmfYXVGc++942WmN+00dJ1f4ejkLlrP9G2VHtlXJmkvw3/8R36Kebbx6s5IRCrchYocJWvZXSPt4bGqfWySlqr0wtWL1Zh/xZIiZRXZ0T8Pjsr5SxLrC0pvNZmSuVFRP0WV0G6+EnR2tIN+d73bhSSzbFKfm85IPfe+MOzg9zvHK/XqL1Je8wqNZiYuJU1/ktKty7Q8vLWMcn/B/t4hKV6FzkZLw/RfPcbcpZP5ffozF/GqLuFaoOIUatz75IybWzlLFww8HSLtVI7pzxzsWa7y+9Bb5eFTwGZin10xUHS/84F7EH/7Z8UP5W5yLo25VauTxDS1dkSwmJSvD2yRKK/5INADh6Sv5+Veh0yDnXqFXXubTeX2BlJZW1YLa+ie2qwTf0VWL2bM1ZEepXoILyVmhOerYSLx6mwWfK+W0JVdqvfL8/ZdowQy//b4mvRFNxibZSVOg38viKjYtzvmkrBVtaoZ9CZa9Y4JwhOufTZ9utsj7xbVOU3Mo5b1+6QTFte6h7Yq6+SvfW99YlmrcoX4k9nOsu/6lmCCHPMcq4ZvN/fqCw138nMud6pk+vJOUvy9CKHK+f6yhda5Y377I/XHAdcmQczvWKc0z8yjluFpzWX8N+2lr582drid2dGkrgtfbaH/j+qrEjEn5aCUcr4XnLLbdo1KhRuvvuu3XXXXcpJSXFGwPHhB1M56YpK6G7+p6bor5nxytz7mytsTOdgkLtdH6M6yXUU0zxwTlGiV36qt/FyWri/OQWODtuQv1Yp68nKl7te/VTvx5B9Vfs2aWc3c604ktOK9a6nXnI2en9fNfuqiH33qreMRl6+c3ZJW+9Mc78ZL/3iIb+cpAGDbJmmF5YkK/4boM1/OddlT/rnxp54yANHfVPpWY589oyPuDzqq/CPc4hsXaCEup6PUz91urx437qfdp+5e8qUEyDBDeoK1bXGT/W+Q7zQh9O45zxE6IKlbOj5KlOYf5OFUbVU5yFKHucE/iPp2jKB6mat3SFMrfmq2B3jnL2xSghPvB7d04KGtSTdufLmZVqLWf5HE15z1nmyRP0z6fGKT0/ScmnN1BRJdbxiSSmeYoG39xPrTfN0Ni7h2rQrx/R+Lk5imuepHj/37S+naCR1/n33UG6842VoU+068QrwTlTz8/b6Qvuwuz3VU+cev9mlIZ0y1fqK5OUEXixVu5jYHv17pGo3PRU94SqcGOGZs7PV9K5vdU6JuCkzFkn+Z+/oNHO7+eoh8dqyrdyjr0p8qqpcj5vjdI/crbjiS9ozGNPasbW1u5x262DrdqsTwCoZoJ/v5xfubS/DvOOtU4zdIzSst0xDx6nnXOOSS+N1VMTsxTXJVmta21WRtpKxZ5xkXqf21e9W+Rq3pwlynan59m0VKn2vlfG6s9PTFBmc+fcvFuzg+dlIWQvTdO83CT1viBFPXolK3ZFmtID/wBegd+fsL8hzm9M4o9HaOSg9sp67z+asrScVazsLudv5HGRr8z06c55oe83dezTM5TbuLuST23gGxzmuziwyzmfjrVz94B1F1VX8U53QV6OdsZ1UC8rpbtgnlbkFip75Txl7EpSyo86hLkTo5RzjMLSr9kSg8sWlXb9d0KLdU7tExRTuEv5du0V4LCuNZ3vxr2+mDxJE54drdEvZiju3H7qcVJpe2yA/Tsrda13wvKnVSGuOwpKu14p4+uwOnLnLCpQx969lXKBc1zc4xwjF4UPLouvtbdv4furxg47/LSSnhdffLGGDBmik046qfjBQjgOcpcqfa5zFha5U0vnpGlpfqzzIz7P9xdmZ+d0b3rZF+a0JSrWG+52lc75it1xg/dt71wmNuBHOa6Fc1C6vreU/rImzMosWemwM09x5w7TqNHOD4fTjPnL/erf3jnLrJ2oHtc8pBf+PVojru6rNrmpevnxO/Xwm0uUX575q+psF9lXqIKQfz2PVYwzvLAo6MRwf4G7ugPPVwMV7PMNt4eABYqJtTc4J73OeivckemcYL2sl1+y5gVNWZyjIu97D65Q3+rJtO+nWofNtszfpjonsM7yOieWs/cka/Dv7tHAjg0rtY5PKFFxan3+MI15YZwe+u1A9W68XjNefEQjHp+iTH/xF+eC4NY/+Pbd0X8Zo3vClEawbd3dvqK8FRtuv6+K4pLU99qh6rojVePfnqds/8mz/3ha5jGwnlo7F7vtC50TqvRv9M0XzkVoVLIu6tFa9ZxpFI8WuE7+5FwM9YjXyncmaJ5bT5XJVdbyrzTPubhJ/1bqcctIDerirbPqtD4BoDoJ/v1SjLpePcr3u2fH20eGKrn45qhcZbw3wT3HmvDeGjX78TDdf1MfJaxPU5pz3LYHh6bN+krZzvlH/vy0kiWM8tdrxcJ5mjcrTSvzu2rIXUPVo7Qn1rmlOOcp35mf3IWpSs8sVEyhM/30NQHnyZX4/Qn1GxIVrw79btDA07I05ZWpWrq1HMGlM83yXiccD1lzJjnnhc654RsztLltf434vyHq0dgbGO67sHN3Z4EK9gculNNu3ZExinXOm9qk9FZS/hLNW/qNlny+VPkn91CK/wkqoZR1jhHumi1Yadd/JzpvHR5yPXOY15qFm1ZoScY8pc5eouyTB+r/ftVXSaHu1gmpctd6Jyz/9XKo647SrlcOKQkfqFBZVtLTGWfvxgylznf2n6hCLUnLOLSwlqf4WjumLt9fNeYeygPZ7ep16tTxukpnJT579+6tnj17uqHn3r17lZGRoeeee05jx47V//73P/e+fBwb2ctna579zm1K15TXJ2jK5/bnaO8vzNEJSnR+2Dev26Ac77fVrbz7X8M06LYXtDI6Uc1icrVmQ46747ryV2rC3YM09Kl03y0cfnGJSmrhTOvbNcopPkDkKztzjXJrJ6llvPuT7YlV4nmDNeRcKWPyFPcgEyiucUt1OK292rdvr9antVaiPUn6jbEa81KaNse1V+9Bt+qhvz2lIR2lzEUrfQ+zqdZinNWXqLg9Wdqw+eBBs3DdFI0aPFijP9muxi2dM+kNK5S5o/ibUP7GTGXlx+vk5gk6tMpT+wvzSm2ObKnWiYEnWTGq1/xkxe9ZoxXrnFPkxN4aOX6iJjwzQsneaDEJLZ0fa+d7X519sNTenhxtWOvst4lJoW+7rS6cE53Enz6k8W9O1MSJznL/baQGnpukuJg4JZaxjk/s3y17YubLGvPUBGXkJ6jrhYM1YvRYjf55kgpXLNAK/0MVnONAmw6+fbe9s+8mhbm9JN85QVyTG6OkVs2ciwNfv0P2+yqb1cUq7tS+GnJ1V+V8Pkkz1tracdhTYMt5DIxL6qG+Z8ZqiXNcGzsp070NMLmFM9w5pgZe1hSvk47J6tOrq+8YkeMdI2ona+Adj2j0I/eof6t8pX+U5myrvkGm+qxPAKg+Dv39ilV8yza+3z073p7qnM/5f/qc4/StYye45xsTJ76gh27up/bxBVrx+TxlOYNzF0zRhNcnKc35HdGeDM3JCChhdNplGv7AaD183xC11xLN/PSbUgMYK8U5Z5Hz7n2ZSp04QROmZbi3s2d9nl7igTsV/v0J8xtiT1Xuf/1AtV6XqkmznGuLsm59r9B1wrEWp96/e8H7niZq3P1DSj6BPuR3EaOElkmKz1+jzI0BP747srRio9SspbMdOFfUcSenqHcr57rr7Zc1aX6B2vdOKX56dGhhzjFql37NtiTg+Tum1Ou/4o3sBFSYo8zlG1TY2NmmGwSco+4/zGtNu7648Fe6/xFnO7k5WTFrU5W61NZ5OUVyHVIph1x3ONt+ea5XQsnP1Ly0lU5LoVZ+4BxD35ihlfa9f5Pm3T4fLOBau3lTvr9q7JDws27dukpMTPS6StehQwf16tXLbf/+++81btw4TZkyxW3PycnRwoUL9e9//1szZ87Uvn3l+DMKKq8wS0tmZaig/WCNedX3gz7ROSEac017FSxOc34o7QnuXSXn5Gvq3Czl78lX1oJUTZ2Tq3i7LefUZF10dpwyp010n3ZWmJftTG+yZqyLU5du9pcV73OMc+LS4/xkaelETfh4pXILC5W7dIYmTM9UXGD9Pn4xiepz9ZDiwC1QcT13zgFl5cpMZa7fpcidK5Q+fYpmfO78aOcVqnDHBm3Y5kymXpxijuf50hFit630bp6t6e/6ns6Zn71Ss6c6B121Vpf2p6rdeX3Vele6Jrxt9dA4y78pQ1PeTlV28xT1KK44qEC5G9a46y3jvXH680tLFHfeZUppVXLdx3foq76n5ivttQlKdZ/eXqicrExlW6uz98ckdlXfHvHKfG+CZizIVqE9xXCWc/K+SEo+v0cF/opZjdhf58u1jk9UMc7peI6WzpmiiR/M00pnYynck6P1G3OcfT9eCbW9bSw/W2tW+Pfdlcr8Nqv4CYfF+3X6JI39yyTfbWNnJxafDByy369zjjlV9iciRq0vHKLBzklxsYocA2OaqfuFKYovzHXGS1RKr65KCDpEmuJ18k2GZs/JUL5dICYEHfDqd1S/n/dW3Erncz8/+MTc6rU+AaDqCvf75fvD88FzL7f51rnYdU+owshdqrT0bCUNOPiH2IkTxunWs2P0zZz0Q0oYxZ3aR4MuSVTWdOecbG246XollmKTdesz/rB1osY/3F9JW+cpPbC0X0V/f0r5DYnr1F9DBiR5XWWo6HVCFRT8XcR3uEh9WuZqxmsTlb7BOW/Mz1LaO5OUvqu1ep/XxnedFJek5N7tnXNK5zw7sqP6dEsqRwgS4hyjrjPNUq7ZTg4so1TW9d+Jln4W5mhD5jfOdrxEqf8ZrbGfFyj58ovUsb433BWrmF1H4lozRknnDlL/03KV+sYMLdnu9S4L1yGVc8h1x2btLirH9UoI+avnKW19vPqOPPiHkIn/Hqne8ZlKn7vGu1M1zLX2qQ35/qqxQ8JPe4J6p06dynxSuY3XrVs393Xnzp169913tX37dtWuXVs33HCD7r//fp1xxhnav3+/0tLS9OWXX3rvxNFgfwVOXVqo1j2SAwIr56CcnKLWBUs0Z8E2NTt/iIaeK6X+404NvW6o7nx8gta0HajhV3VVfG3npOjqYerbIF0vjBqmwTcO1yMvZijx8uEa2uNgaOHjTNeZ1rAL6yn9pVEaNniwhj08Qd807afhV6co1J06MS37aMgvk0tOxzmwFNdz5zYjNfLpWao7YKSGnZGtGc8+ouE3Dtbg4WOUuqO9LrssWc3KPouo+uK7qv8N/dV69QQ98uvBGjp8lP75Saz6/upm9T05RnGn9dPNQ3uo4BOrh8ZZ/ttGa8qG1hr4q0HqWnw8LdSSN0a76230S2lKuHyEHr6596Hr3v5af8sQ9difqn/+fqgGDRqs4Y9PUVbj3s7JvHNSFpOo5KtuVv9W32jCn4dr8OChGvl8uuqd72wDvcpz0lY9lW8dn7jifzRM91/dWivfGatRw4dq8HV36p+fS8lXXKQu/vWzydmm/ujfd0dp5Khxmm2VmAXu12MmaMUpAzXq/qFK9r8v1H7/1PQybk85zuJaq++QwWrtdVb0GBjfoZf62IMJT+urPu3jndPuIIHr5IHRenlpS/X71WClNA/eA2OU2K2/BjoXSRlvT1WGVeBfHdcnAFRFZf1+BZx7uc3vR+rhd1YqL2RJyEJlL52tjNwkJXfzwjETk6CuPbpK36Zp3ndBj1GKilfXHw9Ucu2VmvLOvIOl9gILIFiJpTkrFdepR4kQMe6UbkpubqX9vtY2Zzn8KvT7E/gbEnzHdVScul4xRP1aet2lqvh1QpUT/F3EOefuNw1W160zNGaEc9449E6N/Xinkq+5Wf2KS446y92tj7o6yxdzZi8ltyjngoY5xwh7zRawPVjoUvr13wn28JV9mZry1CPOdvyI/vlxgXr/ZrRGXBx0PRNZV11/Wfa1Zrky0DjnPT/vq/gNUzRh9rpDH0obBtchlRDiumPRyTeUfb0SbF+uVnw+W9nx3dWjbcBI8R2U0i1eWV/M0Sr30Bz+Wpvvr/qKyM/PP+C1F8vLy9NLL72krVu3en0O1aRJE914442Ki4vT3Llz9eGHH7r9k5KSdN1117kh6NKlS90k3QSOfyQsX7bMrd8wOibGrXc0xmksiLV2uwU/sLEg116NtfubwG5/e6hXY+2fOcvZtatzwuIJHB5KWcOPJCupmZVd4FbwW+J2lX35yt6QrfzYRLVu7huQvzVL2VZEyzmRSbRbNQJ/EfYVKndTlu82ldoJSrKKnwP674xJVFLABxTmZinLipUHjuvvnyvfbSLFPX3zUlA/SUnxBcpen63cgsCf5BjF+KcTVah85/Oy82143UOXqybw1ofd2hRj6yT4bDA/V1mbclQY/D3tcb7rDfna5XwnMVHOOot3vpPGAd+Jsy1s3lqgelbZs/9EyL6/Dc73WhhuffrXtzMv8c68VPG/yofavkosd4yzbp3tq8BuTy5twwm3juEq3r8dMY1tv7UV5GwrzrZk+2aJvTeqrvN9JKhgk7df27Zp+3PzgMrj7XhU6n7v9TrevH0sNrG1EotLC3j7kEIc68pxDMzP9t5r22Ohs91tyHFOtJx1Wj/wWOisi9gYJQTsuyG3dfcznX7NnfX9QzVYnwBQ1QX+PoX6/Qo49yrmjFe3fqKaxeYces7rsON+9q5YJZ7snF8EHo/3eL8BjZspIX+zskv8rnjnYwVxTj8rfOCdO9f2zmf8vx923hh0rpZvJQ6d9yXEFSgnr6K/P37+ZY9RzveHnkcVOtcQWXkll8n3uaF/d8L9Rh4XIX/b/bxzm9K+C1s2O3ff6Jy7F8aEvjbxzrd3xpX8fkqcozqfUt5zjJDXbAHXZM3q5Jf7+q+m821ru9xSy3ZOGte8mbNOwnwH7jmW/9rHtv8Q10befhqb6PSv703HO06U2C+8fvnOPpoYmaPsPbEHtxdHqPO4YlyHlEMp1x2tfOu0+Dhj/YuvVw4qcYzy72tRhx6Tis+vG8dq59bw19rF+P6OucWLF6tXz55eV8WFDD/NvHnz9MEHH+jAgZCD1apVK1177bWqVauW3nrrLS1btsztb+Gj3Qrfpk0bvf/++8V1floYaqGohaNHAuEnAAAAAAAAULMdbvh5yG3vfnZL+ymnnOJ1hVdYWOg+6MivqKhIn332mRuIZmcfrPzXbn+n3k8AAAAAAAAAx0rY8NNKdA4YMECNGjXy+pRkYaaVCo2JiVF8vK9yg2bNmunXv/61W9/nPffco3vvvVcXXHCBr2SmM56V/gQAAAAAAACAYyFs+GkSEhJ0zTXXqGnTpl6fg+xp7vaAI9OlSxf3FnR7Snzgk+ItQLXb3y38tNvkrd5PAAAAAAAAADgWSg0/jQWWv/rVr9yAM7AOy/z8fH3zzTdue+vWrdWzZ0/3AUfPPfec+2T3JUuWaOrUqXrllVdUt25dXXrppW6dnAAAAAAAAABwLJQZfhq7XX3QoEHu09qtJKf/4UErVqzQjh073PbevXu7t8lbtz3oaNKkScrIyHCD0SFDhrilSAEAAAAAAADgWAn7tPfS2AOOrM7POnXqeH0Osv67du1yX+22d2uOBp72DgAAAAAAANRsR+1p76WxQDNU8GksZKxXr54aNGhw1IJPAAAAAAAAAChLpUp+VgXHq+SnPdHeL3B4KGUNBwAAAAAAABDepk2bDqvkJ+FnUHuoV2Pt/vCzQ4cOxf1KU9ZwAAAAAAAAAKHZ84YON/ys1G3vAAAAAAAAAFDVEX4CAAAAAAAAqJEIPwEAAAAAAADUSISfAAAAAAAAAGokwk8AAIBqbt1HT+vFOZu8Ls/2BXr7zQXa6XWiGtqUphffXcZ3CAAAcBgIPwEAAKq5rcsm67U//1mTA/PP3es0e866Eyw426bpj16rF5d6ndVdbD3V8lrDW6YXhzys6T94nQAAACiB8BMAAKAGqNdwk/41NlXbvO5Qtq1eoPTP07VsQ4HXJ4SCTVrmjJP++TJt2uf18xS/P6iQaQnbVmuBvT9gpG2r07XambFNy2y6C7RuuzfAb9Myd7r2noLAz/TPy8LV2lbcv0CbFi7Qpp07tW5h4Hxu02pn3K9XO+9ZkK4FtozOvKQ7H7wz05lvmwGzzxnPfV/gfHjT3G6f57zu9noHLEvxfO3epAULN2nn9nWHLGcgd5l/8M2j/6MPLs867Qxczn0By1Jgy+Esr/Wv00KdWzdSrDuS8/YNB9eTy+bFmd9lG1bp6y+8zwm1zCHXo88h0wQAAKhhCD8BAABqgFaD7tFvdj2pJz/yJ22BdmrB2Kv0638u0LbdmzTt0QG6/d0QYde2VI36+UOatmmndq57S7df+7QWuEVH7f3X6vbXV2vn7nV6686r9PRXh5Yp3fnV07r29le1evdOrXvzdl011nfb/Xfvj9J9t9+up7/Ypm0rXtPvrh6tNC9g3DbzYQ14aJo22Xsm/k5XPeoFuBsm63ZvXrYt/Jd+XTwv25T+n4d1++336a3Mbdo0Z6xu/PXbsjKu3331tb5zxtm6woLHAilzmkY9cLvuey5V6ZnOgJ0L9PSQ2/XqCqd9e5r+fO3tXmlZb5p3/ln/+2q1NjpvtWW5avi/tGD7Tm16/yENuHuyL2Tdnq4XH71dtz/4ltZt36S0sTfqxjfX2URKcJf5zvv0r5np+s5CVlueqx/SbKd925w/6yr/9LRJk+++Sve9+bW2bZ+np3/trOcHpuk7G2Sf9Z90d31s+2iUBjzqrSf/ui3YqNXOMm+1ZV/mfU7wModdj2Gm6RsEAABQYxB+AgAA1ARRp2jA/92kvL/9S2nBCdayV/Xwkp/pr0/cpMsuGqB7nhqlFs89rdTgEpiZXyv93Ot0x5V91feXD+uxG6Rtdjv1uul62nn/Yw9epb4XXaWHH+ir1InpQUHZOk3/5wL97LGHddVFfXXVg4+o76y3le59xum/ekyjb7hMl91wj65rm6YFK6zvMr31zE795rF7NMB9z2O6aWe6FmzbqdRn/qUWI/+qe5x5ueyGJ/XXKxfo4deXudOS6umye//hDLtMA0b+RpdlztaCH1qp723X6eKWUrcr79BVZ9XzjdrhJj3mTP+OS1pJBfXV48F/6OFf9lWPfnfoN5cs08ef+0Ng3zRH3XaVujVcplf/bMvypG7q19f5DKd/i3/p6ZneEte7TPf/zZnnfs66vOUyrZu7wBfYBnGX+e471Ld1gdJecZbn7n/oN/166LLbHtMdtV7U/2wdLPufXsy3eXS+m343afSfbpIzp4ewcLP3NXccXE9R27StYTddZfPrvOPi6+1zvJGLl7lRqesx5DTdIQAAADUH4ScAAEBN0fIq3f+rjRo9Nq1EMLlpxdfa2bWzWkV5Peq00+lt7RZxr9uv88/0m51P6qqr7tHo16er4CxfoLZt4Wyt2/SW7htyra615jFn2IpVKlHe8YcFmp25SW894I1z4581fffXWrXBN7hRQy+MdBVIVurxh1X6ensrNW/k6yu10oC/jlLfRnYbd1ud3uHge1q17aadS1bJF1U2UuOGbstBQbdzF2vUSMVTadRcjTPf0qjhvnkc/ZHX3xUwzU02X93U2R8mKlbtOrRV+rJVvs6GjVXPvy7NfneJDnFwmb/Wgv9v736gq6gOPI7/II9XIgRsuhsCqEBNa4xQTVxQAsTWHLdFccFKOEqqu6RuS+sfaMHQpir1UATc6IFaVjiuobUGumAVdkFKayoEeAi0iQqEUMNC6BJDWh9Ckj42Bti58ybwEl6Sl38Exu/HM2fuzJ259868czg5P+fObJF2vjgteG8efFR5JTU6crRG/jLz2yScDzyjvOemuYe64Z+mq2ZJhjJmPaP839Up+TvpYUNS27lrbvk+tqlNAACAyxThJwAAgIvE3/MjZVXmatm2j5w9Ut++MVJd43iurq6vvNHORoPoa5SxYJ3WvTJbU4bV2NPb8w7IOs46f/R0vfDCci03y7/na82KLCU5p9m8fRWjcZq+2DnGWvJ/la+s65z6cOxzwvmMvP3rGr//87Q1/r59zweZ7VC37ad6dNsQPfZCvvJfyVfOHU5FU9FmXBf23ze69c8PhWddT3S8pvzo/L1Zkb9OObdZ19N/4AW/TTjeYRl65vV1yn98ihJOmFcS5Klpdn2hlu9j+9oEAAC4vBB+AgAAuElUvDK+P0X7XszXuUniN6frli0F56fDH92qwr+MV1qTYPLIf05T5s/LpOh4JYzO0Pib/aqsrLPOH6fkbTtVLBPWWUvUEe00780M1T9Z427eqp3vWv2ZY/pb7f1xX8vvkLTPKVDBLueomp3K/XqOCk4kKe1rfr35+4ZnS2u0c8tWJd+W3KHws8b/obyDhyjePLV5ulJlzSV91rjSR1nj2uaMyzp265ZKjU9tFPe2gXU9d/j11q5K5970Vc2BnbJurbwjkpX8+/O/Tc2RJk/U2o5ozUOZwSA6PkG3TB6vW/5SqQ8bPszUrJbuY3vbBAAAuLwQfgIAALjNsEw9/S8hE5hj0zX7ca/ypmXY064zZhYrbcE3lBQ6ddtyzV2PK734h8rIzFRmZoZy/Y8pa6zXOn+8cn7g1avTJgbPn7ZE5Vc0nZwdq/GP58j7y0xNNOdnTNOSIzHyNumjMeucGY+pZonVpt3uMmnGbKX3l5KmLtCdJbOCY7HaWhY1Wzl3nJsf34x43XJHkjbOz9SPf3Ph2ytjb89S+rZZGp9h9XVfrsrj43XkL+Hechmr9O9b1/Lzafa4Mu97VMVjn9M3hjvV7ZD0wHO688AsTbT6Nvf2h7+R+ponb617O/s7fj1zX/C3efS18jAB7zUaPzNdxU8Ej8m0xu6fkaVx9pO7N2jcPZVa9mim8vbaBzfS/H1sqU0AAAD36FFbW3vWKV9W9peUyOv1ytOrlzwej3pZS1RUlF3u2bNno6VHjx722jDlhiV0u6Ecbm2Y8nafTwMGDNB11wUfkwitD6e1egAAgIvNzLC2/oRq2ek61ckbNriM6PyIDmqiuXNaGEuzWuu/LeNrz7W0JNz12NPSnf1H8pX5fF8998JExduVTQSs8USHGU9r42zpPjbXJgAAQDc7cOCAKisrNXbMGGdP2/HkJwAAwKdIRDme+ehOM2FjROe3Jyxs7pwWxtKs1vpvy/jacy0taXo9dSVa9tC3lftfW1W8ZY1+/MRqfeGeceGDT6O5kLK1cbZ0Hwk+AQCAixF+AgAAAN3Fm6Tp/7FAk4ZJNbpGU55dox/f3tr0fgAAAESK8BMAAADoTlGxSrgpXem336KkwTyFCQAA0JkIPwEAAAAAAAC4EuEnAAAAAAAAAFfia+9NyuHWhik3fO29QWh9OK3VAwAAAAAAAGheR7/2TvjZpBxubZiyCT/79Onj7GlcH05r9QAAAAAAAACaV1NT06Hwk2nvAAAAAAAAAFyJ8BMAAAAAAACAKxF+AgAAAAAAAHAlwk8AAAAAAAAArkT4CQAAAAAAAMCV+Np7k3K4tWHKfO0dAAAAuDysXr3aKV2apkyZ4pQAAEBLOvq1d8LPJuVwa8OUCT8BAACAy4MJPxctWuRsXVrmzJlD+AkAQIQ6Gn4y7R0AAAAAAACAKxF+AgAAAAAAAHAlwk8AAIBOFVDZlrUqrnQ2L1OBg4VaW1TlbAEAAACXJ8JPAABwcX2wVtnZ2crd0kywdni95lr1S7f7nR0dVBdQoM4pXxQBVe3xqbza2Wyrj4r1yoIc+x5lZ+co99d7VX3GqWsjf9ErWphj2rGWJ3P12vuRDypQuUe+8pPOVtt0pN/OdOjQIa1fv95et+TUqVMqKiqy152tK9vuqEvhuiP9jTrXx9rxb5lKGuh8C+ALd2n+7z526oxTKn7hXn3e1FnLwBEP6eXSS+/3AwAAkSH8BAAA3aJq8y6VXxDq1WvvOz4FnK3OULZhruZuKHO2LnVVKvzFGlWPnalnn31Wz859UAmlK7Xm3XaEh1WFynutWqkzrXastp7+RoL2/2qNirs6h+yuftvJhHO7d+9WRUWF9u3bp9OnTzs1HdeVbXeUGYsZkxmbGWNnBqBd2XZnOLQiU6m7U/Xr/Wd19uxZHV+Rqg3/mKmXnX8mTr39E925MkX5x4P1vuyAnpi2VMXBagAAcJkh/AQAABffoAQlaLf2HHG2G1QXyVc0VAlfcLZDBCrLtOvttSr4Q5mqap2dDc4EVHVwlwrWFWjXwSoF7FC1WkdLSlX+V6v413KVlhy19kj1H5WptKLaaq9YBRv3quH50mbbr/OrzJx7xrTn06a3d6msskk8e8av8j8UaNP2YpUfr3d2hjD171rnbvSp+EgLT7Sapy0rU5Q+Ji643SdRaWkDVFparjCttqjqfZ+qktOV5jQVfV2abosrVemh5lvyH7HuoTPGcEcF79Em+d4tl7+Zp1Hb0293aQgnT5w4oQEDBujGG29UVFSUU9sxXdl2ZzBjMWMyYzNj7MyQsivb7rhK7dj4pqZm3KvrrwzuuXLsVH3zjjdVaf6t0Cn5Ns5X6nenarRTP+yBR/TNd95UUTP/D+X5559XZeWF77kw+xYvXuxsAQCA7kL4CQAALj7PcKV+OUa+d/Y2Ctmqigp1OCVVqX/n7LDVq/y3SzRv6QYdPClV/2mDFs9fKt9HTvUZv3zL5mn5W0dUbf13cMNizVvmk98Eoh+UqvyEdcyJcpV+UGU/UXqydJPyVizWkuUFKj/+N2tfQGXrFmreikJVeeOkhvaP261LtaXa9PM8LV28XJv2W218uEN5z+dqfUNwGyjT2gULtdxn1f31oApezlNBw9iM42Yae65WFVUoUFeh4vxczXujLPzTrdXV8g+KU1zIX2ix8UMk/0m1dQL6yWq/Bsc7CaQtVoNMU9XhWrLuwRvztPClHaqqq9LBt/KUt7nxawn825fa9+jIyYAqilYpd8FalYW5iLb1232ahpPJycnyeDxObcd0ZdudyYzJjK0rQsqubLtj4jV19VnlZ8Q725ZTh3Roz52Kt//d+ViVh6Xrhw2zq4KGKSnj90442tiLL76oWbNmady4cfrwww+dvbLLZt/3vvc9vfTSS85eAADQHQg/AQDAxfeRXzEpaRpa5FPRuenQ5dq12a8RwxPV29ljq/JpzVsefW3mDN0/cZImTZ2h2eOltb8olB3PVexWweEUZfzrZE2y6u+f/qBGVRdrb2Wckq3ttGutY65Ns+qSdS6S63+bvvXkbGVNHaXB9X75NVIPPpKlCWNSlT71YU0dXq7CP4aGf7FK/Wfr+HtN/1b9TdXa+6dgfdX21+SLm6wfPna/1cdkZX3/fiXbNUa99m5ao4NffFAzssz4rPqZD+r69/O0dm8zT0J2YkjmifQvvUqfXtsxQJOzg/d4ctZs3f8lp84wU9nX9dIk6x5NtutnKONqnzYVhX+KNeJ+uwnB53mfzgC0seIXn9DLD8xSZoKzwxId4U92zz33aOjQoSorK1NaWpr9tKdZTNnsS0hI0N133+0cDQAAugPhJwAAuPhq6/VJTIpSUw6rsOGL4of3aLdSlZrUOHWoPrhHVUOTlfw5Z4cldniyhlTuUZl5qjPuWo3oX6RNv/aptMKvek+iJs15WGmDgseGNXiQYhv+CvIM1qiJ6UoImKnxpdZSpmO1TZ9UHKxB5/r3qHd0Q321yv7k15CkBMUEK62/rmIUe+7Ywyp7X0pOSZR1SlB0om76Ur32HDzs7GiPau16daEWLnKWjeXO/vapPlQq/zXDlXDuIqSY2PNPb9q/wedipT+b+2OWcn3SJ1blVZ30UaqLiODzQp/mAPTQmod07+q79PpTtzf+ny4Rio+P19atW3XttdfaYWdqqvVvmLWYstlXWFhoHwMAALoP4ScAAOgmHg2/NVXV9oePgh86ivnyKA3pWa2q87NH9Yl5t+Tfx54PF40+/RRr1qbOm6BJM2fqq4P88r22VE/9IEdLflseflp5WNXau3KenvqVT0f/5uyK2CfBMbSkfoBinXcHNugXE6v65s6rj+TdmDFKuXeGZjziLOlDnP2NNdtHE/Y9bkGw/qQqPihVqbNUeBKVOqSfXd9UpP12hzNnum5wXdn2xfZpuE+n3pmvzMcC+smqH2l0X2enI9CGV9ReddVVevvttzVs2DD7q/VmMcHn5s2bNXDgQOcoAADQXQg/AQBA9xk6Smm9ffLtsJaioUpLMU8bNg4UTVCo/zkanOLewH9M5YpVvz5WuT6gQM9YJY6ZoKzHntQzczMUt3m5Nh0MHtqq43u05d0ETZ1+v9L/IVGJSYka0uidoy3pp37W8KqbTUr6KeZzR3X0aGh9vaqq/IqNCRMcxsQotuKoKuqcbYu/slyKtfpxtht4oqMV3cdZvM7OEOa+Hf1zRcg7Vf2qME2F6de+x7WBRu9fDRVt9SUNUap57UDoYv9ejbWl3+5wxRVXaOTIkerfv7+OHTum4uJi1UcUOLeuK9vuSmaMZqxmzGbs5hrMtXSGrmy7Qw6v1DcfKNEjO/I1daizz3al4q3tHfsPOdvGIZWsud15J2h4V199tf2UpwlCzTR4E3yaMgAA6H6EnwAAoBvFacStsdqz4Tf2h45SGj3eGeRJHKnUUwVas9WJP89UqfD1AgVGj1SiV6ovXat5z65VaaMvwPeSp1ewZAd71dWtPAl6VEed5usrC7Vpd7DcOo8Sv5Ssk9sLVOx8ICnwv7tVfO4r9nFKHjtExf+9/tz4AgfW6413hyjt5guDQ8UnKrn/Hm3Z7UwnD5SpsPCYEhOHWD21TVxismL2btEu5+NLgQ8KtaUqUYnDLmzJkzhCyScKVdDwDs/ao9pdfH4qffT1o6z6kN/AUrV9ldaWXHhX29Jvd+ndu3eXhZRd2XZXCBdOmmvoDF3ZdoccXqnM0T9T0i9fbhJ8Gr2V8pWHVZK3UjtqgnsOrfqZXr71TqWEvBM0HBN2mgC0IQQFAACXBsJPAADQreLMh4/qeyn11uHhAz4zrf07kxSzbbGyn8xRzg8Wy9dvkh6emGAf7xk+Sd8efUyr5mcr5+m5ypm/Vv4vZyn9muDpccNTNbh0leZmh3zBPdRnkzXprn7a8tNsZWdn66lXqzR4eLQUONXsk5Chgv1Xac2C4PnzNlaHvPNTih2dpW+NLNcrT1tjt8Y/99Vyjfp2llI/6xzQyGB9dfoERb+VG7yWuXkq/eJUZdwUJhVuzVVf1cN3R2vTc1afVt9zV5Tq+vsylByuKe9wTfpWqqreWGhfQ/bCDaqOtV8sEBRt1X93gvMbzNXcnBwtfS9WycPOvcn0vLb0240IQD+lwadlxy8ztbJyh54YHa0ePXqcX6asVKVVf+X4XL3+dZ8yYz6vpBED9fmnovWTFQ+HfMiseWbqu3kKFAAAXDp61NbWnnXKl5X9JSXyer3y9Oplv0i9l7VERUXZ5Z49ezZazB8zZm2E/oETut1QDrc2THm7z6c+fcz8uqDQ+nBaqwcAAG1UF1C9Jzr818TP1CsQ+ES9osPUm7p6T9jp4edEckxLzPT7M+GnoNtM+/9nppBH9gRkfSAgfaaZa20L+75Y/faJoN9IjrV+g0BP6zpba64t/XYR8+7Fffv26YYbbrBDqXBCP1I0aNAg3XjjjfbflJ2hK9vuqNOnT+u9995TRUVFp4eTbWk7kt+ovVavXq1FixY5W+1Qf0of10hXXtn5oe2cOXM0ZcoUZwsAALSkpqZGY8eMcbbajic/AQDA5cPbQhjY02O//zJsvalrLdSM5JiWeFoIPg3TfoTBp2He6dnh4NOw70uE/UZyrPUbRHQZbem3GzU8pWnCyaSkpE4NJ7uy7Y4yYzFjMmPr7Kcyu7Lti8rTu0uCTwAAcHERfgIAAMCVzJOEEyZMaPWJQhPOpaSkdElI15Vtd9SlcN2R/kYAAADtRfgJAAAAAAAAwJUIPwEAAAAAAAC4Eh88alIOtzZMmQ8eAQAAAJcH88GjSxkfPAIAIDId/eAR4WeTcri1YcqEnwAAAAAAAMDFw9feAQAAAAAAACAMwk8AAAAAAAAArkT4CQAAAAAAAMCVCD8BAAAAAAAAuBLhJwAAAAAAAABXIvwEAAAAAAAA4EqEnwAAAAAAAABcqUdtbe1Zp3xZ2V9SIq/XK0+vXvJ4POplLVFRUXa5Z8+ejZYePXrYa8OUG5bQ7YZyuLVhytt9PmcrMqHnAwAAAAAAAGi7sWPGOKW2I/xsUg63NkLLDcLtC9VaPQAAAAAAAICuw7R3AAAAAAAAAK5E+AkAAAAAAADAlQg/AQAAAAAAALgS4ScAAAAAAAAAVyL8BAAAAAAAAOBKhJ8AAAAAAAAAXInwEwAAAAAAAIArEX4CAAAAAAAAcCXCTwAAAAAAAACuRPgJAAAAAAAAwJUIPwEAAAAAAAC4EuEnAAAAAAAAAFci/AQAAAAAAADgSoSfAAAAAAAAAFyJ8BMAAAAAAACAKxF+AgAAAAAAAHAlwk8AAAAAAAAArkT4CQAAAAAAAMCVCD8BAAAAAAAAuBLhJwAAAAAAAABXIvwEAAAAAAAA4EqEnwAAAAAAAABcifATAAAAAAAAgCsRfgIAAAAAAABwJcJPAAAAAAAAAK5E+AkAAAAAAADAlQg/AQAAAAAAALgS4ScAAAAAAAAAVyL8BAAAAAAAAOBKhJ8AAAAAAAAAXInwEwAAAAAAAIArEX4CAAAAAAAAcCXCTwAAAAAAAACuRPgJAAAAAAAAwJUIPwEAAAAAAAC4EuEnAAAAAAAAAFci/AQAAAAAAADgSoSfAAAAAAAAAFyJ8BMAAAAAAACAKxF+AgAAAAAAAHAlwk8AAAAAAAAArkT4CQAAAAAAAMCVCD8BAAAAAAAAuBLhJwAAAAAAAABXIvwEAAAAAAAA4ELS/wPZ+dOkJHDMegAAAABJRU5ErkJggg==;" vertex="1" parent="1">
          <mxGeometry x="40" y="40" width="1343" height="438" as="geometry" />
        </mxCell>
      </root>
    </mxGraphModel>
  </diagram>
</mxfile>
